<?xml version="1.0" encoding="utf-8"?>
<!-- Generator: Adobe Illustrator 27.5.0, SVG Export Plug-In . SVG Version: 6.00 Build 0)  -->
<svg version="1.1" xmlns="http://www.w3.org/2000/svg" xmlns:xlink="http://www.w3.org/1999/xlink" x="0px" y="0px"
	 viewBox="0 0 750 500" style="enable-background:new 0 0 750 500;" xml:space="preserve">
<g id="BACKGROUND">
	<rect x="125" style="fill:#FFFFFF;" width="500" height="500"/>
	<rect style="fill:#FFFFFF;" width="750" height="500"/>
</g>
<g id="OBJECT" xmlns:vectornator="http://vectornator.io">
	<g>
		<g>
			<path style="fill:#D3C0FF;" d="M519.333,231h-226C281.551,231,272,221.449,272,209.667v-102c0-11.782,9.551-21.333,21.333-21.333
				h226c11.782,0,21.333,9.551,21.333,21.333v102C540.667,221.449,531.115,231,519.333,231z"/>
			<ellipse style="fill:#B8A9EA;" cx="425.5" cy="133" rx="9" ry="9.5"/>
			<ellipse style="fill:#B8A9EA;" cx="461.25" cy="133" rx="9" ry="9.5"/>
			<ellipse style="fill:#B8A9EA;" cx="504" cy="133" rx="9" ry="9.5"/>
			<rect x="352.75" y="110.25" style="fill:#B8A9EA;" width="38.5" height="86.083"/>
			<rect x="400" y="110.75" style="fill:#B8A9EA;" width="121.25" height="4.25"/>
			<rect x="287" y="145.333" style="fill:#E3DCF9;" width="8" height="51"/>
			<rect x="301" y="126.333" style="fill:#E3DCF9;" width="8" height="70"/>
			<rect x="316.667" y="112" style="fill:#E3DCF9;" width="8" height="84.333"/>
			<rect x="333.333" y="112" style="fill:#E3DCF9;" width="8" height="84.333"/>
		</g>
		<path style="fill:#E3DCF9;" d="M358,433c-236,0-278-36-278-36h590C670,397,618,433,358,433z"/>
		<g>
			<path id="XMLID_38_" style="fill:#B8A9EA;" d="M324.177,351.511c0,0,2.159-4.246,0.519-7.784
				c-1.64-3.538-5.085-5.754-3.839-9.918c1.246-4.164,5.27-3.294,6.374,1.522c1.104,4.816,0.009,9.842,2.249,10.042
				c2.241,0.2-0.227-10.364,1.84-14.765c2.066-4.401,8.866-2.796,8.169,2.294c-0.696,5.091-3.468,11.33,0.306,9.174
				c3.774-2.156,4.568-12.15,8.864-16.453c4.296-4.303,11.433-2.482,10.964,1.513s-9.326,8.708-8.791,11.44
				c0.535,2.732,10.78-6.516,18.975-6.934c8.195-0.418,8.758,6.724,1.494,9.405c-7.263,2.681-17.376,2.517-16.398,4.559
				c0.978,2.043,16.642,2.187,16.708,7.577c0.066,5.39-6.231,5.828-15.457,1.612c-9.225-4.215-15.021-3.074-8.518,2.256
				c6.504,5.329,15.614,6.606,11.786,10.924c-3.828,4.318-17.165-6.996-20.792-7.167c-3.627-0.171-10.044,7.004-10.044,7.004
				l-6.271-4.503L324.177,351.511z"/>
			<path id="XMLID_47_" style="fill:#E3DCF9;" d="M315.813,336.914c0,0-0.482-4.739-3.775-6.827
				c-3.293-2.088-7.389-2.088-8.594-6.265c-1.205-4.176,2.65-5.622,6.185-2.169c3.534,3.454,5.331,8.273,7.324,7.228
				c1.992-1.044-5.798-8.594-6.441-13.413c-0.643-4.819,5.944-7.148,8.112-2.49c2.169,4.658,3.213,11.405,5.221,7.549
				c2.008-3.855-2.731-12.69-1.446-18.633c1.285-5.944,8.273-8.273,10.04-4.659c1.767,3.614-3.133,12.369-1.205,14.377
				c1.927,2.008,5.542-11.312,12.208-16.097c6.666-4.785,11.003,0.917,6.345,7.102c-4.658,6.184-13.252,11.517-11.325,12.706
				c1.927,1.189,15.18-7.164,18.151-2.667c2.972,4.498-2.088,8.273-12.128,9.718c-10.039,1.446-14.296,5.542-5.943,6.505
				c8.353,0.964,16.706-2.891,15.822,2.811c-0.883,5.702-18.222,3.402-21.364,5.221c-3.142,1.818-4.658,11.324-4.658,11.324
				l-7.711-0.395L315.813,336.914z"/>
			<path id="XMLID_39_" style="fill:#D3C0FF;" d="M327.539,343.982c0,0,2.731,3.935,5.461-0.482
				c2.731-4.418,1.044-11.164,6.747-11.003c5.702,0.16,4.658,6.506,3.694,8.273c-0.964,1.767-2.577,4.578,0.76,5.301
				c3.337,0.723,8.477-10.441,16.669-9.558c8.192,0.884,4.578,9.959,0.562,11.405c-4.016,1.446-11.164,0.241-10.441,3.695
				c0.723,3.454,11.325,0.643,12.77,6.425c1.445,5.783-5.462,7.228-13.092,1.606c-7.63-5.622-4.001,2.771-4.001,2.771l-17.845,0.04
				c0,0,0.964-9.076-7.389-13.413C313.082,344.705,322.398,336.031,327.539,343.982z"/>
			<path id="XMLID_12_" style="fill:#B8A9EA;" d="M352.708,396.625H322.93c-1.292,0-2.339-1.047-2.339-2.339v-31.872h34.456v31.872
				C355.047,395.578,353.999,396.625,352.708,396.625z"/>
			<path id="XMLID_71_" style="fill:#D3C0FF;" d="M323.684,366.711h28.833C352.517,366.711,337.498,374.1,323.684,366.711z"/>
		</g>
	</g>
	<g>
		<polygon style="fill:#FFCDA1;" points="401.938,156.162 400.882,153.981 399.335,145.117 395.466,141.741 389.064,132.174 
			387.094,133.37 390.823,141.53 387.868,144.203 388.15,146.102 386.391,148.002 386.743,149.268 385.688,150.816 387.024,155.247 
			389.345,156.654 391.174,159.116 393.003,159.538 393.848,160.875 		"/>
		<polygon style="fill:#6F003D;" points="395.833,146.292 390.708,148.5 389.125,147.125 388.958,147.667 391.292,150.042 
			389.792,151.458 387.375,149.75 387.083,150.375 390.125,152.5 389.208,154.167 387.5,153.875 387.458,154.417 389.208,154.708 
			389.875,155.375 390.875,153.167 391.542,153.5 392.667,152.042 392.042,150.417 392.833,150.875 394.333,149.958 394,148.625 
			395.292,147.875 394.833,151.833 396.125,155.583 397.25,155 396.125,150.917 396.667,146.208 		"/>
		<polygon style="fill:#6F003D;" points="389.625,145.833 392.833,143.875 391.25,141.708 390.667,142.167 391.625,143.542 
			389.333,145.417 		"/>
		<path style="fill:#2B1F00;" d="M495.804,384.37c0,0-6.838,7.756-10.401,9.518c-3.563,1.763-2.911,6.796-2.911,6.796l29.572-9.197
			c0,0,0.039-3.547-3.37-12.304C508.694,379.183,497.687,380.511,495.804,384.37z"/>
		<path style="fill:#2B1F00;" d="M435.848,386c0,0-8.833,5.375-12.759,6s-4.798,5.625-4.798,5.625h30.969
			c0,0,1.09-3.375,0.436-12.75C449.697,384.875,438.792,382.875,435.848,386z"/>
		<path style="fill:#250B00;" d="M510.17,381.42c0,0-0.49,0.55-1.66,1.29c-1.18,0.76-3.06,1.7-5.84,2.46
			c-3.92,1.07-7.71,0.74-9.57,0.46c-0.75-0.11-1.18-0.21-1.18-0.21l-15-64.5l-11-45l-0.21,1.38l-6.04,38.87
			c0.75,13.75-10.25,68.75-10.25,68.75l-6.62-0.49l-8.18-0.61l-1.95-0.15c0,0,3.25-48.25,7-75.25s6-58.75,6-58.75l1.12-8l2.42-0.03
			l38.21-0.47l0.1,0.84l8.65,75.16L510.17,381.42z"/>
		<path style="fill:#631E08;" d="M510.17,381.42c0,0-0.49,0.55-1.66,1.29c-3.31-13.56-13.95-57.11-16.26-67.21
			c-2.75-12-6.75-31.25-6.75-47.25S479.75,244,479.75,244l7.77-1.99l8.65,75.16L510.17,381.42z"/>
		<path style="fill:#631E08;" d="M449.21,241.64l-7.46,68.11l-6.75,74l-0.38,0.07l-1.95-0.15c0,0,3.25-48.25,7-75.25
			s6-58.75,6-58.75l1.12-8L449.21,241.64z"/>
		<path style="fill:#BC8913;" d="M500.38,185.75l-1.26-5.25L480,173.12c-6-1.24-17.5-0.12-21,0.88s-9.62,2-9.62,2l-31,4h-3.88
			l-0.12-1.25l-2-0.75l-10.13-22.5l-8.73,4.89l-3.77,2.11c0,0,11.5,23.62,13.25,26.5s3.62,2.88,3.62,2.88l37.5,4.62
			c0,0-0.01,0.16-0.03,0.5c-0.06,1.42-0.12,6.01,0.79,15c1.12,11.12,2.24,30.25,2.24,30.25l13.85,0.45l2.55,0.08l18.36,0.6
			l0.62,3.12c0,0,34.5-8,34.5-11.25S500.38,185.75,500.38,185.75z M499.83,226.92l-1.04,0.5l0.42,2.66l-12.38,3.17l5.5-26.75
			l7.55,17.83l-0.76,0.67L499.83,226.92z"/>
		<path style="fill:#FFCDA1;" d="M482.08,152.61l-5.58,11.88l-0.66,8.87l-9.49,4.74l-1.83-1.23l-0.67-4.52l-0.13-1.08l-0.3-2.48
			l-6.27-1.72l-0.4-0.11l-0.16-7.66l0.26-1.61l-2.04-2.62l4.01-2.96l0.07-3.96l3.016-6.462c0,0,11.704-3.288,16.494,2.232
			C483.19,149.43,482.08,152.61,482.08,152.61z"/>
		<path style="fill:#6F003D;" d="M483.81,153.34c-0.89,1.56-7.59,12.43-7.59,12.43c-3.01-1-5.57-4.68-5.57-4.68
			c1.5,0.56,3.51-1.12,4.12-2.51c0.62-1.39,0.9-5.24-1.17-5.24c-2.06,0-2.84,2.67-2.84,2.67s-2.29-0.5-3.23-3.9
			c-0.01-0.02-0.01-0.05-0.02-0.07c-0.2-0.75-0.23-1.45-0.15-2.08c0.01-0.18,0.04-0.35,0.08-0.52c0.38-1.94,1.65-3.18,1.65-3.18
			c-3.97-2.22-8.92-5.47-8.92-5.47l4.46-5.29c0,0,6.03-0.92,8.83-0.05c0.06,0.02,0.11,0.03,0.16,0.05c0,0,2.16,2.62,4.78,3.4
			s4.79,4.23,5.3,6.35c0.5,2.12,0.61,1.62,1.22,3.4C485.54,150.44,484.7,151.78,483.81,153.34z"/>
		<path style="fill:#6F003D;" d="M460.165,148.599c0,0,0.585-0.474,1.896-0.307c1.31,0.167,2.9,1.589,2.9,1.589l-0.558,1.031
			c0,0-1.422-1.171-2.481-1.338c-1.059-0.167-1.589,0.223-1.589,0.223L460.165,148.599z"/>
		<path style="fill:#6F003D;" d="M461.753,151.868c-0.061,0.675-0.285,1.206-0.5,1.186s-0.339-0.582-0.277-1.257
			c0.061-0.675,0.285-1.206,0.5-1.186C461.69,150.631,461.814,151.194,461.753,151.868z"/>
		<path style="fill:#DBA782;" d="M474.44,155.597c0,0-0.362-0.781-0.892-1.004c-0.53-0.223-1.31,0.641-1.812,1.366
			c-0.502,0.725,0.307,0.502,0.251,1.84c-0.056,1.338-0.976,1.004-0.781,1.589c0.195,0.585,1.171,0.641,1.561,0.056
			c0.39-0.585,0.251-0.948,0.028-1.282c-0.223-0.335-0.223-1.561-0.112-1.924c0.112-0.363,0.474,0.781,0.669,0.558
			c0.195-0.223-0.418-1.394-0.139-1.533c0.279-0.139,0.976,0.307,0.948,1.227C474.133,157.409,474.858,157.046,474.44,155.597z"/>
		<path style="fill:#6F003D;" d="M492.5,205.75c0,0-1.75-12.125-1.625-16.875c0,0-4.125,8.875-3.5,13.75s-3.5,31.521-3.5,31.521
			l4.292-1.229L492.5,205.75z"/>
		<path style="fill:#6F003D;" d="M450.667,206.167l32.833,1.167C483.5,207.333,464.333,214.667,450.667,206.167z"/>
		<path style="fill:#6F003D;" d="M498.383,184.381c0,0-3.249,0.48-6.178,3.727c0,0,0.214-4.315,4.358-5.792
			C500.708,180.84,498.383,184.381,498.383,184.381z"/>
		<path style="fill:#6F003D;" d="M446,183.12L444.25,197c0,0-0.06,0-0.16,0c0.02-0.34,0.03-0.5,0.03-0.5l-37.5-4.62
			c0,0-1.87,0-3.62-2.88s-13.25-26.5-13.25-26.5l3.77-2.11c1.84,6.09,8.34,26,15.73,29.49C418,194,439.5,192.75,446,183.12z"/>
		<path style="fill:#6F003D;" d="M414.438,180.875l-0.25,5C414.188,185.875,416.875,183.875,414.438,180.875z"/>
		<path style="fill:#6F003D;" d="M412.375,179l-1.188,4.25C411.188,183.25,413.688,183.125,412.375,179z"/>
		<path style="fill:#6F003D;" d="M462.25,215.25c0.4,17.05,1.03,24.98,1.27,27.53l-2.55-0.08c-0.17-3.15-1.25-23.67-0.09-39.32
			c1.24-17,3.74-25.76,3.74-25.76l1.13,0.07C465.75,177.69,461.75,193.75,462.25,215.25z"/>
		<polygon style="fill:#6F003D;" points="476.113,169.927 466.355,178.096 471.094,184.229 479.068,174.025 		"/>
		<path style="fill:#6F003D;" d="M466.355,178.096l-7.249,4.368c0,0,0.892-3.42,1.97-6.022c1.078-2.602,2.881-3.438,2.881-3.438
			S464.793,176.962,466.355,178.096z"/>
		<path style="fill:#AE3900;" d="M477.778,252.272l-15.901,5.52c-1.467,0.509-3.07-0.267-3.579-1.734l-8.692-25.036
			c-0.509-1.467,0.267-3.07,1.734-3.579l15.901-5.52c1.467-0.509,3.07,0.267,3.579,1.735l8.692,25.036
			C480.022,250.16,479.246,251.763,477.778,252.272z"/>
		<path style="fill:#FFCDA1;" d="M480.718,236.643l-11.215-2.393l-7.253,3.963l0.374,1.72l5.383-1.794l-4.86,3.29l0.748,1.794
			l5.682-2.243l-4.71,2.467l0.673,1.944l3.888-1.57l-2.542,1.794l0.673,1.645l3.439-1.869c0,0,7.477,2.692,11.44,0.449
			L480.718,236.643z"/>
		<path style="fill:#6F003D;" d="M468.25,164.13c0,0-0.5,5.24-4.53,7.14l-0.3-2.48l-6.27-1.72
			C459.22,167.02,465.42,166.64,468.25,164.13z"/>
		<path style="fill:#6F003D;" d="M457.25,159.375c0,0,1.625,0.75,2.458,1.542c0.833,0.792-2.083,1-2.083,1L457.25,159.375z"/>
		<path style="fill:#631E08;" d="M493.1,385.63c-0.75-0.11-1.18-0.21-1.18-0.21l-15-64.5l-11-45c0,0-0.295-2.962-7.54-9.61
			l0.12-0.87c0,0,6.06,4.31,7.88,8.75c1.81,4.43,6.87,25.06,6.87,25.06l6.31,27.19l4.69,19.12L493.1,385.63z"/>
		<path style="fill:#631E08;" d="M465.71,277.3l-6.04,38.87c0.75,13.75-10.25,68.75-10.25,68.75l-6.62-0.49
			c1.24-2.99,4.68-12.27,6.7-27.76c2.5-19.17-0.5-28.84,4.5-40.17s7.33-48,7.33-48c2.84,2.67,4.67,7.063,4.67,7.063L465.71,277.3z"
			/>
		<polygon style="fill:#6F003D;" points="485.25,233.667 487.875,243.917 488.958,243.417 485.833,233.5 		"/>
		<path style="fill:#6F003D;" d="M500.042,230.333c0,0,4.75,1.375,6,1.542c1.25,0.167-0.208-0.417-2.167-2.125
			C501.917,228.042,500.042,230.333,500.042,230.333z"/>
		<path style="fill:#6F003D;" d="M500.167,226.75l6.917,0.875C507.083,227.625,503.375,223.875,500.167,226.75z"/>
		<path style="fill:#6F003D;" d="M486.188,243.594c0,0.673-0.476,1.219-1.063,1.219c-0.587,0-1.063-0.546-1.063-1.219
			c0-0.673,0.476-1.219,1.063-1.219C485.712,242.375,486.188,242.921,486.188,243.594z"/>
		<polygon style="fill:#6F003D;" points="394.375,165.719 403.313,159.719 402.813,159.25 394,164.125 		"/>
		<path style="fill:#4C0131;" d="M483.81,153.34c-0.89,1.56-7.59,12.43-7.59,12.43c-3.01-1-5.57-4.68-5.57-4.68
			c1.5,0.56,3.51-1.12,4.12-2.51c0.62-1.39,0.9-5.24-1.17-5.24c-2.06,0-2.84,2.67-2.84,2.67s-2.29-0.5-3.23-3.9
			c-0.01-0.02-0.01-0.05-0.02-0.07c-0.11-0.405-0.261-0.89-0.269-1.481c-0.018-1.347,0.467-1.793,0.447-2.053
			c0.03,0.15-0.212,0.877-0.053,1.153c0.435,0.757,0.945,1.611,3.175,1.721c3.81,0.18,3.57-0.32,4.88,1.74
			c1.31,2.07,1.81-1.5,3.5-1.31s2.93-0.5,3.25-2.12c0.31-1.63-0.63-2.88-2.06-3.44c-1.44-0.56-0.07-0.81,1.31-0.25
			c1.37,0.56-0.38-3.31-2.13-4.56s-4-2.25-5.31-4.13c-0.53-0.76-0.74-1.38-0.79-1.86c0.06,0.02,0.11,0.03,0.16,0.05
			c0,0,2.16,2.62,4.78,3.4s4.79,4.23,5.3,6.35c0.5,2.12,0.61,1.62,1.22,3.4C485.54,150.44,484.7,151.78,483.81,153.34z"/>
		<path style="fill:#631E08;" d="M472,266.833c0,0,6.5,27.333,8.833,39.667c2.333,12.333,4.167,24,8.5,34.833
			c4.333,10.833,10.333,38.833,10.333,38.833S490,345.75,487.083,339.583c-2.917-6.167-6.5-30.583-7.167-33.417
			C479.25,303.333,471.25,270.333,472,266.833z"/>
	</g>
	<g>
		<path style="fill:#2B1F00;" d="M290.933,386.083c0,0,8.833,5.375,12.758,6c3.926,0.625,4.798,5.625,4.798,5.625H277.52
			c0,0-0.008-8.167,0.646-17.542C278.167,380.167,287.989,382.958,290.933,386.083z"/>
		<path style="fill:#2B1F00;" d="M248.833,380c0,0,1.667,9.667,6.833,14c5.167,4.333,4.833,6.5,4.833,6.5h-22.667l1-18.333
			L248.833,380z"/>
		<path style="fill:#583EFF;" d="M278.958,185.083c0,0,10.708,22.583,13.208,37.75l-7.958-1.25
			C284.208,221.583,275.75,191.833,278.958,185.083z"/>
		<path style="fill:#250B00;" d="M292.33,385.08c-3.95,0.39-8.74,0.13-12.08-0.15c-2.43-0.21-4.08-0.43-4.08-0.43
			C273,371.33,274,335.83,274,335.83l-1.67-1.66c0,0,0,0,0-5.17s-11.16-51.67-11.16-51.67s-3.59,48-4.59,55.5
			c-1,7.5-2.75,49.75-2.75,49.75l-13.37,0.36l-5.38,0.14c0,0,1.34-51.66,1.5-55.5c0.17-3.83-1.91-30.08-2.58-42.91
			c-0.58-11.19,0.86-31.11,1.24-36.04c0.06-0.73,0.09-1.13,0.09-1.13l48.38,1.58l0.79,8.42c0,0,6.83,61.17,7,70
			S292.33,385.08,292.33,385.08z"/>
		<path style="fill:#583EFF;" d="M286.96,245.46l-3.25,3.62l-45.83-0.35l-2.55-0.02l-2.37-2.88l2.01-12.28l1.24-7.59
			c-0.25-27.25-10.75-39.5-10.75-39.5l19.62-10.75c0,0,7,1.25,16,2.87c9,1.63,17.88,6.5,17.88,6.5c1.37,2.5,5.25,36.5,5.25,36.5
			l0.9,7.86l0.39,3.37L286.96,245.46z"/>
		<path style="fill:#5B0237;" d="M285.5,232.81l-16.67-0.23l-29.75,6l-1.2,10.15l-2.55-0.02l-2.37-2.88l2.01-12.28l7.36-19.47
			l-8.5-19.83l-6.75-5.58l0.09-1.34c0,0,8.08,2.67,11.25,9.92c3.16,7.25,5,11.92,5,11.92l10.25,4.16l-0.42,1.09l-7.25-0.34
			l39.11,15.36L285.5,232.81z"/>
		<polygon style="fill:#5B0237;" points="281.083,214.167 277.667,196.917 278.667,186.583 279.5,187.833 279.583,194.25 
			280.833,192.583 281.75,194.25 280.333,196.75 288.917,221.583 282.25,219.75 		"/>
		<path style="fill:#FFCDA1;" d="M261.89,177.48l0.24,2.17l-1.96,1.3l-14.99-4.99l0.72-4.15l0.31-1.83l-0.05-0.27l-1.03-5.54
			c-1.58-0.27-3.04-3.04-2.34-5c0.7-1.96,2.17-2.33,2.17-2.33l0.27-7.28l3.75-4.25c9.19-3.47,15.87,6.04,15.87,6.04v7.66
			c0.76,3.8,0.81,9.34,0.81,9.34l-4.13,5.98L261.89,177.48z"/>
		<path style="fill:#6F003D;" d="M249.797,148.524c0,0,0.326,5.813,0.272,6.085c-0.054,0.272-2.39,2.553-2.39,2.553l0.054,3.042
			l-2.282-0.38l-0.489-2.984c0,0-1.521,0.865-2.227,2.603l-1.902-8.312l2.445-2.608l1.684-4.129c0,0,6.574-3.097,12.224-2.662
			c5.65,0.435,8.692,3.26,8.692,3.26l-0.489,1.087c0,0,1.739,1.032,3.042,3.694l-3.64,3.912l0.059-2.338
			c0,0-2.232-3.094-7.176-3.801C252.731,146.84,249.797,148.524,249.797,148.524z"/>
		<polygon style="fill:#5B0237;" points="253.333,206.417 277.083,207.5 276,209.167 254.75,209.083 		"/>
		<path style="fill:#583EFF;" d="M225.458,186.458l-3.75,8.5c0,0,1.875,18.5,4.75,26.75s9.625,11.625,9.625,11.625l10.5-11
			C246.583,222.333,237.083,190.458,225.458,186.458z"/>
		<polygon style="fill:#ECDC00;" points="261.813,186.75 272.875,215.375 271.5,223.938 268.563,224.563 261.563,215.875 
			258.938,186.5 		"/>
		<path style="fill:#F4A971;" d="M247.5,217.917l5.75,2.167l32.833,1.25l6.083,1.5c0,0-0.083,3.5-2.083,6.917
			c-2,3.417-33.25,0.25-38.583-1C246.167,227.5,247.5,217.917,247.5,217.917z"/>
		<path style="fill:#FFCDA1;" d="M237.208,233.833c0,0,26.125-1,37.75-4.625s9.75-3.25,9.75-3.25l4.813-1l0.438-2.125l-1.063-1.875
			l-0.375-2.313l-0.938-1l-0.938-2.188l-1.188-0.25l-1.5-1.5l-2.563,0.5l-8.563,5.875l-31.375,1.313
			C241.458,221.396,235.833,226.271,237.208,233.833z"/>
		<polygon style="fill:#F4A971;" points="252.25,219.917 251.333,217.792 249.875,217.583 248.958,215.542 247.083,215.292 
			245.083,213.083 243.292,213.583 241.583,212.917 237.375,215.458 235.25,219.042 236.292,219.833 238.917,217.5 240.167,217.083 
			237.5,220.417 236.292,223.25 237.5,224.083 240,220.917 242.417,219.667 240.458,221.792 239.625,224.875 240.625,225.458 
			242.792,222.458 246.125,220.292 244.583,222.583 244.167,224.375 245.542,224.917 247,222.792 		"/>
		<polygon style="fill:#5B0237;" points="243.688,176.438 252.063,184.375 259.5,181.438 260.25,182.063 250.25,186.563 
			242.875,176.938 		"/>
		<polygon style="fill:#5B0237;" points="260.563,181.188 266,184.313 265.875,180.5 266.688,181.25 266.75,186.25 259.188,182.188 
			259.5,181.438 		"/>
		<polygon style="fill:#5B0237;" points="238.167,197 235,185.083 233,185.75 234.5,192.667 		"/>
		<polygon style="fill:#ECDC00;" points="257.125,183.125 258.938,186.5 261.813,186.75 262.188,183.813 259.5,182.125 		"/>
		<path style="fill:#6F003D;" d="M259.095,153.823c0,0,0.381-0.65,1.667-0.954c1.285-0.304,3.273,0.468,3.273,0.468l-0.159,1.162
			c0,0-1.743-0.596-2.793-0.38c-1.051,0.216-1.409,0.768-1.409,0.768L259.095,153.823z"/>
		<path style="fill:#6F003D;" d="M251.053,153.907c0,0,0.381-0.65,1.667-0.954c1.285-0.304,3.273,0.468,3.273,0.468l-0.159,1.162
			c0,0-1.743-0.596-2.793-0.38c-1.051,0.216-1.409,0.768-1.409,0.768L251.053,153.907z"/>
		<path style="fill:#6F003D;" d="M262.584,157.598c0.048,0.841-0.13,1.536-0.398,1.551c-0.268,0.015-0.523-0.654-0.571-1.496
			c-0.048-0.841,0.13-1.535,0.398-1.551S262.536,156.757,262.584,157.598z"/>
		<path style="fill:#6F003D;" d="M254.657,157.917c0.048,0.841-0.13,1.535-0.398,1.551c-0.268,0.015-0.523-0.654-0.571-1.496
			c-0.048-0.841,0.13-1.535,0.398-1.551C254.354,156.406,254.61,157.076,254.657,157.917z"/>
		<path style="fill:#6F003D;" d="M259.656,158.333c0,0,0.392,2.573,1.831,3.663l0.087,1.221l-2.616,0.741c0,0,0-1.047,0.916-1.308
			s0.916-0.262,0.916-0.262S259.046,159.947,259.656,158.333z"/>
		<path style="fill:#6F003D;" d="M261.208,165.708c0,0-5.125,0.667-6.917,0.292c0,0,1.875,1.042,4.708,0.792
			C261.833,166.542,261.208,165.708,261.208,165.708z"/>
		<path style="fill:#6F003D;" d="M261.89,177.48c-1.67,0.08-3.95-0.19-6.98-1.25c-5.18-1.81-7.78-3.44-9-4.42h-0.01l0.31-1.83
			l-0.05-0.27l-1.03-5.54c0,0,1.36,4.44,3.49,6.78c3.19,1.59,8.86,4.01,12.91,3.38L261.89,177.48z"/>
		<polygon style="fill:#6F003D;" points="246.406,219.969 248.406,218.563 247.813,218.406 246.25,219.719 		"/>
		<polygon style="fill:#6F003D;" points="242.438,219.5 246.406,216.938 245.281,216.906 241.969,219.406 		"/>
		<polygon style="fill:#6F003D;" points="240.281,216.844 243.094,213.813 242.375,213.813 240.063,216.5 		"/>
		<path style="fill:#631E08;" d="M242.83,339.33c-1.83,1.17-4,32.84-3.33,38c0.33,2.48,0.68,4.34,0.96,5.61l-5.38,0.14
			c0,0,1.34-51.66,1.5-55.5c0.17-3.83-1.91-30.08-2.58-42.91c-0.58-11.19,0.86-31.11,1.24-36.04l8.76-0.13c0,0-2.5,4.83-1.67,15.5
			c0.84,10.67-1,59-0.66,64c0.33,5,10,4.5,11,6.33C253.67,336.17,244.67,338.17,242.83,339.33z"/>
		<path style="fill:#631E08;" d="M251.25,268.875c0,0-1.875,17.125-0.5,31.625s0.875,26,0.875,26s1.875-15.75,1.375-21.375
			s-2.25-18.25-1.625-23.375S251.25,268.875,251.25,268.875z"/>
		<path style="fill:#631E08;" d="M251.125,341.25c0.199-0.475-2.875,35.5-2.875,35.5S246.875,351.375,251.125,341.25z"/>
		<path style="fill:#631E08;" d="M261.17,277.33c0,0,1.58-5.83,5.58-8.747c4-2.917,4.083-6.417,4.083-6.417s-2.833,4.333-6.25,6.333
			C261.167,270.5,261.17,277.33,261.17,277.33z"/>
		<path style="fill:#631E08;" d="M277.75,339.62c0,0-0.75,4.88,0.87,11.13c1.55,5.95,1.63,31.7,1.63,34.18
			c-2.43-0.21-4.08-0.43-4.08-0.43C273,371.33,274,335.83,274,335.83l-1.67-1.66c0,0,0,0,0-5.17s-11.16-51.67-11.16-51.67
			s0.66-6.62,4-8.16c0,0,6.16,32.66,10,43C279,322.5,276,329,277,331.38c1,2.37,4.25,4,4.12,6.37
			C281,340.12,277.75,339.62,277.75,339.62z"/>
		<path style="fill:#631E08;" d="M280.333,265.333c0,0,7.833,49.5,8.167,63c0.333,13.5-1,50.667-1,50.667s-0.167-52.5-0.5-55.5
			C286.667,320.5,278,272.5,280.333,265.333z"/>
		<path style="fill:#631E08;" d="M241,253c0,0,24.75,1.875,40.5-1l-39.5-0.625L241,253z"/>
	</g>
	<g>
		<g>
			<path style="fill:none;stroke:#D3C0FF;stroke-width:4;stroke-linecap:round;stroke-miterlimit:10;" d="M95.25,398.417
				c0,0,14-54.5,32.25-56s31.25,47.25,34.25,61.25"/>
			<path style="fill:#D3C0FF;" d="M94.333,259.667c0,0-7.566-1.636-16.932,1.258c-3.151,0.974-3.832,5.206-1.138,7.107
				c5.286,3.73,11.792,10.981,12.57,24.301c1.333,22.833-2.458,35.417,7.167,47.417c7.613,9.491,24.333,11.875,36.5,9.375
				c12.167-2.5,19.167-8.292,19.167-8.292l-36-26.167l-5.333-51.833L94.333,259.667z"/>
		</g>
		<g>
			<path style="fill:#FFCDA1;" d="M211.213,372.702c-1.3-5.022-12.985-49.797-17.546-54.202c-4.833-4.667-28.917-6.75-28.917-6.75
				S145.167,332,144,341.833c0,0,19.333,1.167,41.667-8.833l17.833,43.5l0.823-0.35l-0.011,0.038c0,0,11.25,3.438,11.75,2.5
				C216.496,377.875,212.33,373.778,211.213,372.702z"/>
			<path style="fill:#631E08;" d="M205.813,397.063c0,0,0,3.5,2.063,6.5s1.75,3.375,1.75,3.375l2.125,0.563
				c0,0-2.063-4.375-0.813-3.813s3.688,3,8.188,3.5s7.375-0.625,8.063-1.875s-8.375-6.875-8.375-6.875L205.813,397.063z"/>
			<path style="fill:#631E08;" d="M106.375,314.5c0,0-3.875,12.75,1.25,22.375S147,343,147,343s12.625-25.5,17.75-31.25L148.5,311
				L106.375,314.5z"/>
			<path style="fill:#F4A971;" d="M172.292,337.833c0,0,3.542,21,17.208,37.667c13.667,16.667,17.833,23.5,17.833,23.5
				s5.5,3.833,10.833,2.333c5.333-1.5-3.833-5.833-7.833-12.667c-4-6.833-24.667-55.667-24.667-55.667
				S176.5,336.792,172.292,337.833z"/>
			<path style="fill:#631E08;" d="M205.688,379.313c0,0,8.194,3.258,11.688,3.469c4.656,0.281,4.594-0.938,4.813-1.188
				c0.219-0.25-8.906-6.781-8.906-6.781s1.5,1.375-0.688,1.75s-8.531-0.938-8.531-0.938L205.688,379.313z"/>
			<polygon style="fill:#BC8913;" points="180.88,273.12 154.67,298.08 138,285.12 136.7,264.23 136.25,257 155.75,283.58 
				177.12,267.12 180.26,272.13 			"/>
			<path style="fill:#6F003D;" d="M180.88,273.12l-26.21,24.96L138,285.12l-1.3-20.89l2.68-0.85c0,0,1.74,15.74,8,22.62
				c6.24,6.88,6.87,8.75,11,4.5c4.12-4.25,8.5-7.88,14.12-11.88s7.12-6.62,7.12-6.62l0.64,0.13L180.88,273.12z"/>
			<path style="fill:#250B00;" d="M149.08,311l-7.04,0.81l-13.25,1.54l-24.29,2.82c0-7.59,5.25-27.42,5.25-27.42
				c-11-10.75-19.25-33.92-19.25-33.92l1.17-2.5l-0.09-1.5l18.62-8.94l0.47-0.22c2.56-0.14,5.41,0.24,8.07,0.82
				c5.5,1.18,10.26,3.18,10.26,3.18s4.83,3.75,8.58,11.25c3.75,7.5,1.25,10.66,2,19.25C140.33,284.75,149.08,311,149.08,311z"/>
			<path style="fill:#BC8913;" d="M149.08,311l-7.04,0.81c-1.61-7.48-8.56-39.54-11.54-49.56C127.12,250.88,119,243,119,243
				l-0.26-0.51c2.05,0.44,4,1,5.63,1.52c0.7,0.22,1.34,0.43,1.9,0.63h0.01c1.68,0.59,2.72,1.03,2.72,1.03s4.83,3.75,8.58,11.25
				c3.75,7.5,1.25,10.66,2,19.25C140.33,284.75,149.08,311,149.08,311z"/>
			<path style="fill:#FFCDA1;" d="M125.906,232.75c-1.65,4.85-5.716,5.08-6.446,4.86c-0.03-0.01-0.06-0.02-0.09-0.03l-0.4,3.08
				l-0.33,2.51l-1.328,2.705l-7.173-2.955c0,0-1.87-9.15-3.24-12.63c-1.38-3.48-3.73-12.88-3.73-12.88s11.82-9.15,19.19-7.45
				c0,0,3.49,4.7,4.46,9.32l0.08,4.37C126.9,223.65,127.686,227.48,125.906,232.75z"/>
			<path style="fill:#6F003D;" d="M120.947,210.672l-2.855,5.406l-5.892,2.187l-0.79,3.644l-1.154,1.154c0,0,0.607,4.13,1.64,4.98
				l-0.85,0.607c0,0-1.336-2.126-1.883-4.616c0,0-1.64,0.304-1.701,3.462c-0.061,3.158,3.037,4.191,3.037,4.191l-2.187,2.612
				c0,0-8.2-4.738-10.143-7.41l-1.701-5.466l4.373-6.256h-7.531l-2.916-2.004c0,0-0.243-4.738,3.219-7.714
				c3.462-2.976,8.625-2.308,8.625-2.308l1.761,2.49l0.061,4.191c0,0,5.102-5.649,10.994-7.289c5.892-1.64,7.046-0.911,7.046-0.911
				l-0.061,1.033c0,0,7.653,3.948,9.354,9.779c1.701,5.831-4.677,9.536-4.677,9.536S125.928,212.372,120.947,210.672z"/>
			<path style="fill:#BC8913;" d="M109.37,290.23c0.24-0.94,0.38-1.48,0.38-1.48c-11-10.75-19.25-33.92-19.25-33.92l1.17-2.5
				l-0.09-1.5l14.48-6.95l1.43-0.69l2.71-1.3c1.73,2.16,5.8,7.53,10.22,15.28c2.34,4.12,4.16,14.1,5.49,24.58
				c0.32,2.51,0.62,5.04,0.89,7.53c1.18,11.11,1.82,21.32,1.99,24.07l-24.29,2.82c0-3.81,1.33-10.72,2.64-16.65
				C108.02,295.61,108.89,292.12,109.37,290.23z"/>
			<path style="fill:#6F003D;" d="M126.8,289.28c-0.35,1.37-1.03,2.84-2.18,4.34c-4.12,5.36-14.11,5.88-17.48,5.9
				c0.88-3.91,1.75-7.4,2.23-9.29l16.25-8.98c0,0,0.12,0.18,0.29,0.5C126.23,284.26,126.53,286.79,126.8,289.28z"/>
			<path style="fill:#FFCDA1;" d="M131.208,245.208l-0.292-6.542c0,0,1.25-2.208,2.042-3.375c0.792-1.167,2.167-4.542,2.167-4.542
				l0.583,0.708c0,0,0.083,1.958-0.667,3.708c0,0,3.208-2.833,4.083-3.792c0.875-0.958,4.792-3.917,4.792-3.917L144,228.75
				l-4.083,5.083l2.875,1.167v0.833l0.833,0.75l-0.167,1.042l0.417,1.042l-0.917,3.25l-2.292,1.25L140,242.875l-1.792,3.167
				l-1.583,1.125l-0.542,0.75C136.083,247.917,131.958,247.917,131.208,245.208z"/>
			<path style="fill:#BC8913;" d="M137.08,248.08c0,0,0,0-2.66,9.75c-2.67,9.75-14.5,38.67-14.5,38.67
				c-14.59-2.75-30.25-32-30.34-38.42c-0.04-3.42,0.53-5.25,1.07-6.22c0.48-0.85,0.93-1.03,0.93-1.03
				c7.85,0.95,21.68,26.07,22.99,28.48v0.01c0.07,0.12,0.1,0.18,0.1,0.18l15.83-34.42l1.06,0.48L137.08,248.08z"/>
			<path style="fill:#AE3900;" d="M175.001,272.035l-18.294-8.682c-1.102-0.523-1.571-1.84-1.048-2.942l13.399-28.232
				c0.523-1.102,1.84-1.571,2.942-1.048l18.294,8.682c1.102,0.523,1.571,1.84,1.048,2.942l-13.399,28.232
				C177.42,272.089,176.103,272.558,175.001,272.035z"/>
			<path style="fill:#FFCDA1;" d="M180.875,273.125l6.125-8.958l0.5-8.5l-3.417-6.583l-1.25,0.833l1.833,5.083l-4-3.5l-3.167-0.667
				l-0.75,1l2.917,1.75l2.583,2.833l-5.083-3l-0.75,1l3.917,3.333l-4.167-1.667L175,256.917l3.583,2.917l-1.458,7.292
				C177.125,267.125,176.917,271.167,180.875,273.125z"/>
			<path style="fill:#6F003D;" d="M114.75,282.25l-1.58-3.25l-0.92,3.17l-0.92-0.34c0,0,0.857-3.841,0.25-4.91
				c-12.247-21.545-19.288-25.128-19.288-25.128c7.85,0.95,20.968,25.108,22.278,27.518v0.01L114.75,282.25z"/>
			<polygon style="fill:#6F003D;" points="131.56,245.56 114.75,282.25 114.57,279.32 114.57,279.31 130.5,245.08 			"/>
			<path style="fill:#6F003D;" d="M135.5,253.563l-3.875,12.938C131.625,266.5,137.75,258.625,135.5,253.563z"/>
			<path style="fill:#6F003D;" d="M121.88,261.19c0,0-6.57,0-11.13-4.38c-4.23-4.05-4.65-11.82-4.69-12.93l1.43-0.69
				c0.6,2.49,2.24,8.88,3.97,11.6C113.62,258.21,121.88,261.19,121.88,261.19z"/>
			<path style="fill:#6F003D;" d="M129,249.81l-0.81,1.28c-0.17-2.84-2.75-5.92-3.82-7.08c0.7,0.22,1.34,0.43,1.9,0.63h0.01
				C127.79,246.07,129,249.81,129,249.81z"/>
			<path style="fill:#631E08;" d="M119.37,237.58l-0.4,3.08c-2.69-0.86-7.61-3.22-8.47-8.97
				C110.5,231.69,112.92,235.22,119.37,237.58z"/>
			<path style="fill:#6F003D;" d="M125.544,222.584c0.048,0.841-0.13,1.535-0.398,1.551c-0.268,0.015-0.523-0.654-0.571-1.496
				c-0.048-0.841,0.13-1.536,0.398-1.551C125.241,221.073,125.497,221.743,125.544,222.584z"/>
			<path style="fill:#6F003D;" d="M117.618,222.904c0.048,0.841-0.13,1.536-0.398,1.551c-0.268,0.015-0.523-0.654-0.571-1.496
				c-0.048-0.841,0.13-1.536,0.398-1.551C117.314,221.393,117.57,222.062,117.618,222.904z"/>
			<path style="fill:#6F003D;" d="M122.554,222.789c0,0,0.392,2.573,1.831,3.663l0.087,1.221l-2.616,0.741c0,0,0-1.047,0.916-1.308
				c0.916-0.262,0.916-0.262,0.916-0.262S121.943,224.402,122.554,222.789z"/>
			<path style="fill:#6F003D;" d="M114.875,219.938c0,0,0.719-1.156,2.156-1.031s2.063,0.594,2.063,0.594s-0.438-1.594-2-1.531
				S114.875,219.938,114.875,219.938z"/>
			<path style="fill:#6F003D;" d="M123.594,219.625c0,0,0.594-1.094,1.344-1.156s1,0.344,1,0.344s-0.063-0.813-0.844-1
				S123.594,219.625,123.594,219.625z"/>
			<path style="fill:#6F003D;" d="M122.656,230.031l-4.5,0.188c0,0,0.438,2.531,2.125,2.844S122.656,230.031,122.656,230.031z"/>
		</g>
	</g>
	<g>
		<path style="fill:#631E08;" d="M577.938,393.571c0,0,1.131,3.312,0.149,6.818c-0.982,3.506-0.565,3.76-0.565,3.76l-1.829,1.219
			c0,0,0.538-4.807-0.463-3.87c-1.001,0.936-2.52,4.031-6.617,5.958c-4.097,1.927-7.181,1.792-8.236,0.831
			c-1.055-0.961,5.703-9.213,5.703-9.213L577.938,393.571z"/>
		<path style="fill:#631E08;" d="M581.507,394.515c0,0,2.946,1.89,4.357,5.246c1.411,3.356,1.896,3.295,1.896,3.295l-0.674,2.092
			c0,0-2.569-4.098-2.77-2.742c-0.201,1.356,0.534,4.724-1.475,8.781c-2.009,4.058-4.508,5.87-5.932,5.774
			c-1.423-0.096-1.265-10.761-1.265-10.761L581.507,394.515z"/>
		<g>
			<g>
				<path style="fill:none;stroke:#D3C0FF;stroke-width:4;stroke-linecap:round;stroke-miterlimit:10;" d="M638.667,397.333
					c0,0-15.113-60.03-33.363-61.53s-28.637,42.363-31.637,56.363"/>
				<path style="fill:#D3C0FF;" d="M638.47,253.053c0,0,7.566-1.636,16.932,1.259c3.151,0.974,3.832,5.206,1.138,7.107
					c-5.286,3.73-11.792,10.981-12.57,24.301c-1.333,22.833,2.458,35.417-7.167,47.417c-7.612,9.491-24.333,11.875-36.5,9.375
					s-19.167-8.292-19.167-8.292l36-26.167l5.333-51.833L638.47,253.053z"/>
			</g>
			<g>
				<path style="fill:#583EFF;" d="M597.31,271.687c-3.09,8.99-6.04,16.38-6.04,16.38l-14.02,5.19l-20.65,7.64l-3.67-5.83l29.34-15
					l4.9-9.46l9.4-18.15l6.41-12.37C606.53,242.257,601.78,258.657,597.31,271.687z"/>
				<path style="fill:#5B0237;" d="M599.22,264.777l-1.91,6.91c-3.09,8.99-6.04,16.38-6.04,16.38l-14.02,5.19
					c3.1-2.74,8.24-7.7,9.35-11.48c1.17-3.97,0.85-8.8,0.57-11.17l9.4-18.15L599.22,264.777z"/>
				<path style="fill:#F4A971;" d="M573.537,393.022l-0.098,0.028L533.1,323.897c0,0-8,8.167-9.833,15.333
					c-1.791,7.001,43.007,53.274,45.084,55.415c-0.56,0.847-2.822,4.388-2.438,5.814c0.438,1.625,9.688-5,9.688-5L573.537,393.022z"
					/>
				<path style="fill:#250B00;" d="M626.428,307.887c0,0,3.875,12.75-1.25,22.375s-39.375,6.125-39.375,6.125
					s-11.412-22.407-16.537-28.157l15.037-3.843L626.428,307.887z"/>
				<path style="fill:#BC8913;" d="M583.723,304.387l7.04,0.81l13.25,1.54l24.29,2.82c0-7.59-5.25-27.42-5.25-27.42
					c11-10.75,19.25-33.92,19.25-33.92l-1.17-2.5l-18.53-10.44l-0.47-0.22c-2.56-0.14-5.41,0.24-8.07,0.82
					c-5.5,1.18-10.26,3.18-10.26,3.18s-4.83,3.75-8.58,11.25s-1.25,10.66-2,19.25C592.473,278.137,583.723,304.387,583.723,304.387z
					"/>
				<path style="fill:#583EFF;" d="M583.723,304.387l7.04,0.81c1.61-7.48,8.56-39.54,11.54-49.56c3.38-11.37,11.5-19.25,11.5-19.25
					l0.26-0.51c-2.05,0.44-4,1-5.63,1.52c-0.7,0.22-1.34,0.43-1.9,0.63h-0.01c-1.68,0.59-2.72,1.03-2.72,1.03s-4.83,3.75-8.58,11.25
					s-1.25,10.66-2,19.25C592.473,278.137,583.723,304.387,583.723,304.387z"/>
				<path style="fill:#FFCDA1;" d="M604.078,228.22c1.845,5.423,6.392,5.68,7.208,5.434c0.034-0.011,0.067-0.022,0.101-0.033
					l0.447,3.444l0.369,2.807l1.484,3.025l8.02-3.304c0,0,2.091-10.231,3.623-14.122c1.543-3.891,4.171-14.402,4.171-14.402
					s-13.217-10.231-21.457-8.33c0,0-3.902,5.255-4.987,10.421l-0.09,4.886C602.967,218.045,602.088,222.328,604.078,228.22z"/>
				<path style="fill:#583EFF;" d="M625.67,292.977c1.31,5.91,2.63,12.78,2.63,16.58l-24.29-2.82c0.07-1.06,0.2-3.21,0.41-6.09
					c0.11-1.6,0.25-3.42,0.42-5.4c0.3-3.76,0.68-8.1,1.16-12.58c0.27-2.49,0.57-5.02,0.89-7.53c1.33-10.48,3.15-20.46,5.49-24.58
					c4.42-7.75,8.49-13.12,10.22-15.28l2.71,1.3l1.43,0.69l14.39,8.45l1.17,2.5c0,0-8.25,23.17-19.25,33.92c0,0,0.14,0.54,0.38,1.48
					c0.1,0.4,0.22,0.87,0.36,1.4c0.49,1.98,1.18,4.8,1.87,7.89C625.67,292.927,625.67,292.957,625.67,292.977z"/>
				<path style="fill:#631E08;" d="M611.387,233.621l0.447,3.444c3.008-0.962,8.509-3.6,9.471-10.03
					C621.305,227.035,618.599,230.982,611.387,233.621z"/>
				<path style="fill:#FFCDA1;" d="M581.518,393.56c-2.562-9.959-13.426-48.913-29.084-59.497l36.479,2.552
					c0,0-5.193-26.645-17.646-29.052c0,0-37,5.833-40.167,14.333c-2.897,7.776,37.575,64.496,44.495,74.108
					c-0.013,2.339-0.035,9.29,0.172,10.809c0.25,1.833,2.75,1.917,4.167-0.833c1.125-2.184,1.828-7.822,2.07-10.057l0.097-0.026
					c0,0-0.023-0.097-0.065-0.27c0.042-0.399,0.065-0.646,0.065-0.646L581.518,393.56z"/>
				<path style="fill:#6F003D;" d="M604.486,218.162c0.114,0.935,0.448,1.664,0.745,1.628c0.297-0.036,0.446-0.824,0.332-1.759
					c-0.114-0.935-0.448-1.664-0.745-1.628C604.52,216.439,604.372,217.226,604.486,218.162z"/>
				<path style="fill:#6F003D;" d="M611.813,218.062c0.131,0.933,0.477,1.656,0.774,1.614c0.297-0.042,0.432-0.832,0.301-1.765
					c-0.131-0.933-0.477-1.656-0.774-1.614C611.817,216.339,611.682,217.129,611.813,218.062z"/>
				<path style="fill:#6F003D;" d="M607.687,218.247c0,0-0.439,2.877-2.048,4.095l-0.098,1.365l2.925,0.829c0,0,0-1.17-1.024-1.463
					c-1.024-0.293-1.024-0.293-1.024-0.293S608.37,220.051,607.687,218.247z"/>
				<path style="fill:#6F003D;" d="M615.201,214.64c0,0-0.804-1.293-2.411-1.153c-1.607,0.14-2.306,0.664-2.306,0.664
					s0.489-1.782,2.236-1.712C614.468,212.508,615.201,214.64,615.201,214.64z"/>
				<path style="fill:#6F003D;" d="M606.151,214.756c0,0-0.664-1.223-1.503-1.293c-0.839-0.07-1.118,0.384-1.118,0.384
					s0.07-0.909,0.943-1.118C605.348,212.52,606.151,214.756,606.151,214.756z"/>
				<path style="fill:#6F003D;" d="M606.192,205.985c0,0,1.747,3.937,5.94,5.894c4.193,1.957,6.01,3.634,6.779,7.827
					c0.769,4.193,1.118,7.128,2.516,9.434c1.398,2.306-5.94,15.165-4.962,17.96c0.978,2.795,3.704,8.456,12.16,3.774
					c8.456-4.682,7.408-9.015,6.499-13.627c-0.909-4.612-3.023-18.536-3.145-22.153c-0.489-14.536-16.563-20.127-24.25-12.929
					c0,0-6.639,2.865-6.919,10.203c-0.279,7.338,2.003,8.176,2.003,8.176s-0.021-1.83,0.153-2.499
					C602.967,218.045,602.768,210.039,606.192,205.985z"/>
				<path style="fill:#FFCDA1;" d="M575.1,297.397c0,0-8.583,1.667-10.75,2.917c-2.167,1.25-4.583,3.5-4.917,5.917
					c-0.333,2.417,0.167,3.833,0.167,3.833l1.667-0.75c0,0-0.333-2.333,0.333-3.25c0,0,0.25,3,1,3.75l1.5-0.25l-0.25-2.083l0.917,2
					l2.167-0.25c0,0-0.667-1.917,0-3.5c0,0,0.333,2.833,1.333,3.417l1-0.917c0,0-0.417-1.583-0.083-2.083s5.333,0.167,8.5-1.5
					C580.85,302.98,575.1,297.397,575.1,297.397z"/>
				<path style="fill:#583EFF;" d="M619.22,290.397l-41.54,14.25l-2.9-6.07l-0.68-1.43l36.5-15.37c0,0,0.33-0.58,1.38-2.4
					c1.09-1.89,2.94-5.13,6-10.48c0.03-0.05,0.06-0.11,0.09-0.16c4.37-7.59,11.69-16.15,15.57-20.35c1.47-1.6,2.45-2.56,2.58-2.61
					c4.5-1.63,6.08,2.44,6.08,2.44C643.51,264.537,619.22,290.397,619.22,290.397z"/>
				<path style="fill:#AE3900;" d="M585.848,308.911l-49.58,7.876l-9.526-20.569c-0.258-0.568-0.367-1.158-0.343-1.738
					c0.104-1.654,1.336-3.145,3.137-3.406l26.433-3.837c1.574-0.227,3.113,0.592,3.815,2.023l9.316,19.316l15.841-2.39l0.393,1.195
					L585.848,308.911z"/>
				<path style="fill:#99320A;" d="M585.848,308.911l-49.58,7.876l-9.526-20.569c-0.258-0.568-0.367-1.158-0.343-1.738
					c6.906,4.682,25.353,16.148,39.583,15.679c12.951-0.427,17.705-1.964,19.352-2.779L585.848,308.911z"/>
				<path style="fill:#99320A;" d="M556.59,289.833l10.026,18.966C566.616,308.8,563.513,294.941,556.59,289.833z"/>
				<path style="fill:#5B0237;" d="M639.6,247.147c0,0-4.08,0.33-9.17,5c-5.08,4.67-15.58,26.5-15.58,26.5l3.5,2.5l-1.5,0.75
					l-2.17-1.17l1.09,2.84l-1.09,0.33l-0.83-2l-39.07,16.68l-0.68-1.43l36.5-15.37c0,0,0.33-0.58,1.38-2.4l0.7-0.31
					c0,0,2.37-4.72,5.3-10.17c0.03-0.05,0.06-0.11,0.09-0.16c3.16-5.87,6.93-12.55,9.03-15.09c2.11-2.55,4.34-4.25,6.54-5.26
					C635.69,247.427,637.71,247.067,639.6,247.147z"/>
				<path style="fill:#5B0237;" d="M625.67,292.977c-1.4,1.58-3.81,3.43-7.88,4.73c-6.08,1.95-11.02,2.68-13.37,2.94
					c0.11-1.6,0.25-3.42,0.42-5.4c1.4-0.46,15.13-4.85,16.26-6.04c1.05-1.1,2.38-3.61,2.69-4.19c0.49,1.98,1.18,4.8,1.87,7.89
					C625.67,292.927,625.67,292.957,625.67,292.977z"/>
			</g>
			<path style="fill:#6F003D;" d="M607.208,226.5c0,0,2.5,0.5,5.125-0.917C612.333,225.583,609.875,228.667,607.208,226.5z"/>
		</g>
	</g>
</g>
</svg>
