<?xml version="1.0" encoding="utf-8"?>
<!-- Generator: Adobe Illustrator 27.5.0, SVG Export Plug-In . SVG Version: 6.00 Build 0)  -->
<svg version="1.1" id="Layer_1" xmlns="http://www.w3.org/2000/svg" xmlns:xlink="http://www.w3.org/1999/xlink" x="0px" y="0px"
	 viewBox="0 0 1350 900" style="enable-background:new 0 0 1350 900;" xml:space="preserve">
<rect y="0" style="fill:#FFFFFF;" width="1350" height="900"/>
<path style="fill:#DCFEFF;" d="M182.74,803.89h963.525c6.326-10.014,12.502-21.057,18.126-30.933
	c55.768-97.913,104.711-199.538,115.808-311.674c15.296-154.576-48.047-307.023-225.861-342.079
	C794.803,68.037,463.279,232.02,361.98,458.403c-44.29,7.519-93.406-13.978-139.825-11.566
	c-62.086,3.225-127.966,23.114-155.785,78.588c-37.55,74.883,1.135,165.333,55.457,223.987
	C131.244,759.582,156.137,783.175,182.74,803.89z"/>
<g>
	<path style="fill:#8A929B;" d="M89.328,812.824c0,10.795,258.594,19.545,577.585,19.545c318.991,0,577.584-8.751,577.584-19.545
		c0-7.063-296.619-19.546-577.584-19.546C347.922,793.278,89.328,802.029,89.328,812.824z"/>
	<path style="fill:#5F6870;" d="M115.278,813.784c0,5.622,246.976,10.179,551.635,10.179c304.659,0,551.634-4.557,551.634-10.179
		c0-5.622-246.975-10.178-551.634-10.178C362.253,803.606,115.278,808.162,115.278,813.784z"/>
	<g>
		<g>
			<g>
				<g>
					<path style="fill:#FFC44E;" d="M490.57,414.386c-7.49-18.839-29.039-17.538-30.545-3.07
						c-3.116,29.93,6.104,101.361,14.488,119.494c3.769,8.149,14.742,10.456,22.94,3.922c7.536-6.006,8.259-11.512,7.972-19.656
						C504.6,491.703,495.112,425.811,490.57,414.386z"/>
					<g>
						<g>
							<g>
								<polygon style="fill:#3C4042;" points="445.598,601.294 441.663,788.294 457.227,788.294 452.546,601.294 								"/>
								<g>
									<g>
										<path style="fill:#3C4042;" d="M448.49,771.12c-2.862,0.954-76.327,30.531-76.327,30.531v9.541h76.327V771.12z"/>
										<path style="fill:#3C4042;" d="M449.444,771.12c2.863,0.954,76.327,30.531,76.327,30.531v9.541h-76.327V771.12z"/>
									</g>
									<path style="fill:#828A8E;" d="M448.49,771.12c1.539,0.954,41.025,30.531,41.025,30.531v9.541H448.49V771.12z"/>
								</g>
							</g>
							<g>
								<path style="fill:#892743;" d="M585.027,644.35c-1.596,12.131-6.755,22.206-19.103,26.816h-31.815
									c-2.445-8.76-3.939-18.713-9.219-26.816c-0.288-0.44-0.581-0.881-0.894-1.309c-7.751-10.732-20.852-16.792-30.346-25.411
									c-13.377-12.137-19.984-27.69-23.164-46.5c-5.446-32.198,3.372-66.464-2.388-97.775c0,0-10.764-57.264-3.307-49.193
									c0.428,0.459,0.855,0.951,1.277,1.475c0.006,0.006,0.006,0.006,0.013,0.013c17.801,21.905,32.549,94.487,40.587,108.941
									c16.709,30.027,69.069,17.404,74.414,58.937C583.061,608.902,587.115,628.407,585.027,644.35z"/>
								<path style="fill:#AA2D4B;" d="M306.438,612.156c0.007,0.562,0.02,1.13,0.039,1.692c0.249,7.477,1.443,14.723,4.017,21.407
									c6.749,17.52,20.175,28.693,36.392,35.908h218.886c5.165-3.409,8.632-9.666,8.632-16.823c0-1.903,0.313-5.523,0.44-9.992
									c0.339-11.186-0.434-27.697-9.979-36.016c-20.189-17.583-59.148-8.179-66.075-28.514
									c-5.491-16.134-5.65-104.702-32.709-154.17c-0.006-0.006-0.006-0.006-0.013-0.012
									c-10.338-18.899-24.601-32.083-44.584-33.354c-0.128-0.006-0.256-0.077-0.376-0.102
									c-27.071-6.506-60.609,28.903-92.15,124.59c-0.913,2.778-1.827,5.6-2.74,8.479c-3.518,11.11-7.011,22.979-10.457,35.639
									C311.584,576.198,306.687,594.63,306.438,612.156z"/>
							</g>
						</g>
						<path style="fill:#E54A6E;" d="M585.366,650.734v14.046c0,3.524-2.861,6.385-6.385,6.385H368.288
							c-3.525,0-6.385-2.861-6.385-6.385v-14.046c0-3.53,2.859-6.385,6.385-6.385h210.694
							C582.506,644.35,585.366,647.204,585.366,650.734z"/>
						<g>
							<path style="fill:#FFC44E;" d="M486.767,474.585c-0.641,5.319-3.993,17.023-6.138,20.62
								c-2.235,3.751-4.59,7.422-5.993,12.742c-0.251,0.936-0.491,1.875-0.734,2.821c-0.17,0.651-0.338,1.297-0.501,1.949
								c-1.163,4.548-2.27,9.129-3.332,13.641c-0.221,0.942-0.435,1.876-0.656,2.811c-0.234,1.029-0.474,2.043-0.705,3.059
								c-0.289,1.248-0.57,2.484-0.846,3.715c-0.45,1.991-0.892,3.956-1.328,5.887c-0.171,0.763-0.34,1.511-0.508,2.26
								c-0.094,0.441-0.192,0.876-0.293,1.318c-0.165,0.727-0.323,1.443-0.479,2.152c-0.635,2.847-1.249,5.595-1.842,8.195
								c-0.104,0.461-0.213,0.922-0.314,1.376c-0.115,0.5-0.228,0.995-0.344,1.489c-0.069,0.315-0.137,0.622-0.213,0.93
								c-0.069,0.307-0.143,0.614-0.211,0.914c-0.067,0.301-0.136,0.602-0.208,0.894c-0.125,0.52-0.241,1.035-0.363,1.535
								c-0.017,0.073-0.034,0.147-0.05,0.22c-0.138,0.575-0.277,1.134-0.403,1.681c-0.011,0.033-0.016,0.067-0.027,0.101
								c-0.122,0.499-0.243,0.992-0.363,1.479c-0.133,0.54-0.266,1.066-0.396,1.586c-0.13,0.506-0.257,0.991-0.375,1.472
								c-0.08,0.292-0.153,0.578-0.232,0.863c-0.071,0.273-0.148,0.545-0.218,0.804c-0.07,0.267-0.138,0.532-0.215,0.784
								c-0.143,0.511-0.284,1.001-0.423,1.471l-0.002,0.02l-0.008-0.001c-0.683,2.347-1.328,4.187-1.919,5.424
								c-0.364,0.764-0.744,1.498-1.134,2.203c-6.483,11.763-16.828,16.4-41.129,14.332c-8.432-0.716-48.571-14.181-47.646-18.532
								c0.126-0.582,0.243-1.159,0.362-1.735c0.611-2.975,1.146-5.906,1.626-8.795c0.105-0.626,0.201-1.253,0.299-1.88
								c1.352-8.59,2.164-16.853,2.639-25.024c0.183-3.032,0.318-6.055,0.418-9.079c0.054-1.542,0.095-3.085,0.121-4.631
								c0.021-0.727,0.035-1.455,0.044-2.182c0.031-1.628,0.05-3.264,0.062-4.908c0.045-4.834,0.034-9.716,0.014-14.683
								c0.001-0.418-0.014-0.875-0.032-1.359c-0.034-1.087-0.11-2.274-0.217-3.534c-1.634-20.235-9.131-78.334-12.203-94.853
								c-0.621-3.338,23.309-17.9,52.505-16.461l53.701,8.27c6.089,4.625,13.202,5.229,17.558,12.576
								C493.138,423.736,491.595,434.518,486.767,474.585z"/>
							<g>
								<path style="fill:#FFB278;" d="M462.576,401.319c-5.875,3.143-12.662,15.218-18.703,16.087
									c-6.637,0.95-27.026-18.974-31.322-25.017c-5.104-7.176,6.947-9.332,8.7-18.847c0.34-1.814,10.738-39.01,9.043-41.317
									l33.427,38.055c-1.675,5.981-3.08,11.978-3.25,17.901C460.345,392.614,460.908,397.004,462.576,401.319z"/>
								<path style="fill:#E5804E;" d="M460.472,388.181c-2.509,0.889,0.951,3.952-1.797,4.467
									c-40.862,7.662-26.686-58.117-28.381-60.423l33.427,38.055C462.047,376.261,460.642,382.258,460.472,388.181z"/>
							</g>
							<path style="fill:#D69118;" d="M416.756,380.943c-3.421,1.175-11.341,6.354-14.708,7.966
								c3.252,10.654,28.651,31.734,28.651,31.734s14.157-4.774,16.822-5.203l0.691-0.529
								C438.393,409.597,420.634,392.373,416.756,380.943z"/>
							<path style="fill:#D69118;" d="M459.343,387.237c0,0-1.242,13.002-2.72,15.767c-1.753,3.28-9.02,11.825-9.02,11.825
								c1.264,1.198,7.657,3.529,10.646,3.9c2.816-5.777,9.101-21.74,9.101-21.74S460.537,387.223,459.343,387.237z"/>
							<path style="fill:#D69118;" d="M434.186,579.528l-1.937-0.687c10.161-31.84,22.311-104.346,17.517-165.85l2.041-0.238
								C456.63,474.584,444.406,547.501,434.186,579.528z"/>
							<g>
								<path style="fill:#D69118;" d="M445.773,433.296c-0.201,1.496-1.572,2.544-3.068,2.344c-1.494-0.2-2.543-1.571-2.346-3.065
									c0.199-1.495,1.572-2.545,3.066-2.345C444.922,430.43,445.97,431.801,445.773,433.296z"/>
								<path style="fill:#D69118;" d="M444.664,479.5c-0.201,1.495-1.571,2.544-3.065,2.346c-1.494-0.199-2.545-1.571-2.347-3.067
									c0.2-1.494,1.572-2.543,3.066-2.345C443.814,476.632,444.862,478.007,444.664,479.5z"/>
								<path style="fill:#D69118;" d="M440.971,524.443c-0.198,1.494-1.571,2.544-3.065,2.345
									c-1.495-0.199-2.545-1.573-2.346-3.067c0.198-1.494,1.571-2.543,3.065-2.344C440.12,521.575,441.17,522.949,440.971,524.443
									z"/>
							</g>
							<g style="opacity:0.6;">
								<path style="fill:#D87C98;" d="M480.629,495.206c-2.235,3.751-4.59,7.422-5.993,12.742
									c-0.251,0.936-0.491,1.875-0.734,2.821c-0.168,0.644-0.338,1.297-0.501,1.949c-1.163,4.548-2.27,9.129-3.332,13.641
									c-0.221,0.942-0.435,1.876-0.656,2.811c-0.234,1.029-0.474,2.043-0.705,3.059c-0.289,1.248-0.57,2.484-0.846,3.715
									c-0.45,1.991-0.892,3.956-1.328,5.887c-0.171,0.763-0.34,1.511-0.508,2.26c-0.094,0.441-0.192,0.876-0.293,1.316
									c-0.158,0.723-0.323,1.445-0.479,2.154c-0.635,2.847-1.249,5.595-1.842,8.195c-0.104,0.461-0.213,0.922-0.314,1.376
									c-0.116,0.508-0.229,1.001-0.344,1.49c-0.069,0.314-0.137,0.622-0.213,0.929c-0.069,0.307-0.143,0.614-0.211,0.913
									c-0.067,0.301-0.136,0.603-0.208,0.895c-0.125,0.52-0.241,1.034-0.363,1.535c-0.017,0.073-0.034,0.145-0.05,0.22
									c-0.138,0.574-0.277,1.135-0.403,1.681c-0.011,0.033-0.016,0.067-0.027,0.101c-0.122,0.499-0.243,0.992-0.363,1.479
									c-0.133,0.54-0.266,1.066-0.396,1.586c-0.13,0.506-0.257,0.991-0.375,1.472c-0.08,0.292-0.153,0.578-0.232,0.863
									c-0.071,0.273-0.148,0.544-0.22,0.803c-0.068,0.268-0.137,0.533-0.213,0.786c-0.143,0.511-0.284,1.001-0.423,1.471
									l-0.002,0.019l-0.008-0.001c-3.336,0.506-6.671,0.943-10.031,1.301c-6.003,0.632-11.522,0.929-15.851,1.014
									c-5.935,0.111-11.864-0.073-17.789-0.457c-11.161-0.722-22.255-2.442-33.129-5.046c-0.118-0.043-2.25-0.583-2.25-0.583
									c-1.501-0.406-2.999-0.847-4.487-1.293c-2.119-0.627-4.211-1.318-6.304-2.037l-0.007-0.001
									c0.105-0.628,0.208-1.254,0.307-1.881c1.352-8.59,2.164-16.853,2.639-25.024c0.183-3.033,0.318-6.055,0.418-9.079
									c0.054-1.541,0.095-3.085,0.121-4.631c0.021-0.727,0.035-1.455,0.044-2.182c0.031-1.628,0.049-3.265,0.062-4.908
									c0.045-4.834,0.034-9.716,0.014-14.683c-0.002-0.432-0.013-0.888-0.032-1.359c-0.034-1.087-0.11-2.274-0.217-3.534
									c-1.634-20.235-10.894-71.021-13.967-87.539c0.483-1.917,1.452-3.709,3.159-5.416c0.4,15.432,26.259,21.42,28.613,31.303
									c2.806,11.751,4.628,41.817,11.492,55.547C406.96,503.103,452.115,505.636,480.629,495.206z"/>
							</g>
							<g>
								<path style="fill:#441D10;" d="M492.149,312.749l-7.786,1.425c-0.621,0.772,0.904,10.084,1.111,12.387
									c0.419,4.691,0.994,10.326-0.333,14.866c2.569-2.631,8.581-8.624,9.896-12.089
									C497.005,324.148,495.677,314.443,492.149,312.749z"/>
								<g>
									<path style="fill:#FFB278;" d="M477.1,357.522c-1.046-8.416,12.474-20.874,14.818-10.06
										c0.872,4.013-2.389,12.72-6.457,15.668c-4.323,3.131-7.658-0.133-9.878-0.1L477.1,357.522z"/>
									<path style="fill:#E5804E;" d="M488.294,348.633l-0.18,0.233c-0.698-0.903-3.101-0.316-4.214,0.953
										c-1.387,1.583-0.893,2.371-0.418,3.66c0.506,1.373,1.987,7.108-1.878,4.912C476.186,355.314,485.934,342.3,488.294,348.633
										z"/>
								</g>
								<path style="fill:#FFB278;" d="M477.134,372.507c5.535-13,9.007-21.096,10.404-38.845
									c0.927-11.756-1.479-29.347-8.231-35.261c-14.031-12.288-26.389-5.875-41.401,4.956c0,0-13.47,49.008-10.526,57.377
									c9.659,27.458,28.215,31.221,34.301,31.989C472.813,394.133,474.097,379.637,477.134,372.507z"/>
								<g>
									<g>
										<path style="fill:#FFFFFF;" d="M454.095,345.439c-1.186-0.389-2.379-0.744-3.576-1.066
											c-0.02-0.006-0.039-0.01-0.057-0.017c-2.359-0.628-4.74-1.126-7.133-1.494c-0.029-0.005-0.054-0.01-0.08-0.016
											c-1.15-0.175-2.299-0.319-3.454-0.434c-0.489-2.044,1.034-4.917,3.409-6.66c0.823-0.617,1.757-1.094,2.696-1.336
											c0.806-0.225,1.62-0.272,2.367-0.112c2.479,0.52,3.972,1.97,4.798,3.715c0.14,0.301,0.272,0.612,0.38,0.93
											c-0.001,0.003-0.004,0.005-0.004,0.008C454.151,341.059,454.136,343.446,454.095,345.439z"/>
										<path style="fill:#30241B;" d="M453.446,338.949c-0.001,0.003-0.004,0.005-0.004,0.008
											c-0.839,1.82-1.839,3.829-2.923,5.416c-0.02-0.006-0.039-0.01-0.057-0.017c-2.359-0.628-4.74-1.126-7.133-1.494
											c-0.029-0.005-0.054-0.01-0.08-0.016c-0.36-2.121-0.236-4.706-0.045-7.094c0.823-0.617,1.757-1.094,2.696-1.336
											c0.806-0.225,1.62-0.272,2.367-0.112c2.479,0.52,3.972,1.97,4.798,3.715C453.205,338.32,453.337,338.631,453.446,338.949z
											"/>
										<path style="fill:#FFFFFF;" d="M446.217,339.45c0.138,1.224-0.086,2.233-0.466,2.261
											c-0.383,0.028-0.797-0.931-0.958-2.151c-0.161-1.218,0.009-2.237,0.414-2.27
											C445.612,337.258,446.078,338.228,446.217,339.45z"/>
									</g>
								</g>
								<g>
									<g>
										<path style="fill:#FFFFFF;" d="M482.914,350.289c-0.895-0.302-1.797-0.58-2.706-0.832
											c-0.012-0.004-0.027-0.008-0.042-0.012c-1.783-0.49-3.586-0.885-5.4-1.183c-0.02-0.004-0.042-0.009-0.061-0.014
											c-0.872-0.141-1.743-0.26-2.617-0.357c-0.505-2.033,0.39-4.914,2.044-6.738c0.57-0.646,1.238-1.16,1.937-1.445
											c0.597-0.26,1.216-0.347,1.802-0.227c1.949,0.392,3.212,1.747,3.953,3.447c0.122,0.294,0.246,0.596,0.345,0.908
											c0.001,0.003,0,0.005,0,0.009C482.831,345.904,482.909,348.296,482.914,350.289z"/>
										<path style="fill:#30241B;" d="M482.168,343.836c0.001,0.003,0,0.005,0,0.009c-0.53,1.886-1.196,3.965-1.96,5.612
											c-0.012-0.004-0.027-0.008-0.042-0.012c-1.783-0.49-3.586-0.885-5.4-1.183c-0.02-0.004-0.042-0.009-0.061-0.014
											c-0.392-2.109-0.49-4.697-0.574-7.094c0.57-0.646,1.238-1.16,1.937-1.445c0.597-0.26,1.216-0.347,1.802-0.227
											c1.949,0.392,3.212,1.747,3.953,3.447C481.945,343.221,482.068,343.523,482.168,343.836z"/>
										<path style="fill:#FFFFFF;" d="M476.726,344.744c0.187,1.219,0.077,2.24-0.208,2.283
											c-0.286,0.043-0.652-0.902-0.863-2.116c-0.21-1.215-0.166-2.241,0.141-2.291
											C476.101,342.571,476.539,343.525,476.726,344.744z"/>
									</g>
								</g>
								<path style="fill:#5B2A15;" d="M438.467,327.682l-0.322,5.905c0.602,1.062,14.823,3.628,17.934,4.383
									c1.233-2.075,4.084-7.148,1.828-8.378C456.023,327.384,442.738,326.205,438.467,327.682z"/>
								<path style="fill:#5B2A15;" d="M488.799,335.272l-1.171,5.795c-0.739,0.907-12.783,0.53-15.463,0.634
									c-0.491-2.261-0.949-5.676,0.556-8.499C476.489,330.184,487.734,333.004,488.799,335.272z"/>
								<path style="fill:#E5804E;" d="M465.482,343.637c-0.005,0.702-0.029,1.402-0.059,2.102
									c-0.025,0.693-0.019,1.388-0.054,2.075c-0.009,0.689,0.015,1.379-0.005,2.064l0.07,2.051l0.155,2.034
									c0.103,0.673,0.165,1.346,0.256,2.017l0.37,1.996l0.466,1.98l0.142,0.605l-0.456,0.264c-0.451,0.26-0.903,0.518-1.362,0.76
									c-0.218,0.138-0.475,0.208-0.72,0.301l-0.733,0.264c-0.481,0.196-1.005,0.237-1.508,0.345
									c-0.503,0.1-1.011,0.089-1.514,0.138c-0.253,0.028-0.497,0.002-0.747,0.001l-0.743-0.021
									c-0.49-0.019-0.975-0.054-1.464-0.093c-0.483-0.031-0.964-0.057-1.45-0.101c-0.481-0.006-0.969-0.032-1.461-0.054
									c0.475-0.113,0.953-0.229,1.44-0.328c0.485-0.077,0.973-0.139,1.458-0.202c0.973-0.113,1.938-0.19,2.868-0.338
									c0.456-0.097,0.928-0.135,1.365-0.275l0.657-0.199c0.221-0.057,0.44-0.115,0.643-0.219l0.622-0.275
									c0.207-0.094,0.424-0.161,0.607-0.302c0.385-0.247,0.773-0.48,1.163-0.71l-0.313,0.869l-0.532-2.069
									c-0.137-0.7-0.241-1.407-0.362-2.11c-0.071-0.709-0.151-1.418-0.198-2.13l-0.025-2.134c0.04-0.708,0.086-1.416,0.143-2.12
									c0.078-0.702,0.182-1.4,0.288-2.097c0.125-0.694,0.278-1.384,0.424-2.069C465.094,344.983,465.277,344.309,465.482,343.637z
									"/>
								<path style="fill:#E5804E;" d="M455.028,382.105c0,0,0.047-0.122,0.145-0.312c0.089-0.177,0.32-0.467,0.62-0.69
									c0.301-0.248,0.708-0.452,1.164-0.581c0.456-0.14,0.956-0.178,1.45-0.163c0.986,0.05,1.92,0.413,2.503,0.869
									c0.299,0.207,0.511,0.441,0.647,0.611c0.135,0.177,0.198,0.286,0.198,0.286s-0.135,0.006-0.343,0
									c-0.212-0.005-0.499-0.014-0.828-0.031c-0.66-0.022-1.47-0.086-2.26-0.124c-0.196-0.009-0.39-0.017-0.586-0.028
									c-0.192-0.004-0.38-0.011-0.562-0.011c-0.187-0.008-0.362,0.002-0.535-0.001c-0.163,0.018-0.339,0.001-0.489,0.023
									c-0.318,0.028-0.559,0.04-0.783,0.089C455.159,382.091,455.028,382.105,455.028,382.105z"/>
								<g>
									<g>
										<path style="fill:#E5804E;" d="M471.089,367.174c-1.744,0.814-4.836,3.08-6.568,4.125c-0.527,0.315-1.112,0.81-1.726,1.28
											c-0.983,0.754-2.044,1.458-3.054,1.352c-3.422-0.358-12.612-10.253-12.612-10.253c2.275,1.405,11.416,2.828,17.904,3.365
											C467.75,367.264,470.003,367.335,471.089,367.174z"/>
									</g>
									<path style="fill:#FFFFFF;" d="M464.568,367.519c-1.412,1.648-1.586,3.333-1.772,5.06
										c-0.983,0.754-2.044,1.458-3.054,1.352c-3.422-0.358-12.612-10.253-12.612-10.253c2.275,1.405,11.416,2.828,17.904,3.365
										C464.859,367.201,464.7,367.362,464.568,367.519z"/>
								</g>
								<path style="fill:#5B2A15;" d="M502.573,305.521c-2.586,4.591-6.902,9.986-8.809,11.604
									c-5.691,4.854-31.299-6.922-37.458-9.583c-1.766,4.494-2.73,6.795-7.89,6.925c-5.373,0.134-13.948,0.069-13.725,5.718
									c0.675,17.287-3.983,20.626-6.706,26.538l-7.31-9.831c-1.927-6.8-2.584-31.161-0.292-33.599
									c2.307-2.452,14.736-5.785,17.242-7.054c0.637-0.324,1.766-2.088,3.459-4.337c4.58-6.076,13.297-15.688,27.609-9.969
									c4.185,1.672,35.432,14.804,35.908,17.664C504.821,300.893,503.941,303.097,502.573,305.521z"/>
								<path style="fill:#441D10;" d="M502.573,305.521c-2.586,4.591-6.902,9.986-8.809,11.604
									c-5.691,4.854-31.299-6.922-37.458-9.583c-1.766,4.494-2.73,6.795-7.89,6.925c-5.373,0.134-13.948,0.069-13.725,5.718
									c0.675,17.287-3.983,20.626-6.706,26.538l-7.31-9.831c-1.927-6.8-2.584-31.161-0.292-33.599
									c2.307-2.452,14.736-5.785,17.242-7.054c0.637-0.324,1.766-2.088,3.459-4.337c1.422,3.161,3.904,5.826,6.96,7.699
									c9.22,5.636,21.517,8.806,32.254,9.779C487.056,309.995,495.488,308.704,502.573,305.521z"/>
								<g>
									<path style="fill:#FFB278;" d="M428.655,346.902c3.524-7.923-6.357-23.042-11.887-13.085
										c-2.051,3.694-1.348,12.869,1.862,16.64c3.409,4.007,7.708,1.592,9.921,2.126L428.655,346.902z"/>
									<path style="fill:#E5804E;" d="M420.053,335.766l0.112,0.267c0.965-0.718,3.201,0.393,3.942,1.872
										c0.922,1.845,0.196,2.499-0.661,3.642c-0.91,1.216-4.078,6.443,0.44,5.184
										C430.219,344.966,424.283,330.159,420.053,335.766z"/>
								</g>
							</g>
						</g>
						<g>
							<path style="fill:#FFFFFF;" d="M528.19,798.792l-6.988-0.028c-1.489,1.829-2.766,3.651-5.299,11.288
								c12.127,1.934,16.828,2.543,29.437,1.957C541.5,804.675,533.911,803.202,528.19,798.792z"/>
							<path style="fill:#1E141A;" d="M584.528,595.391c-42.651-19.519-124.464-27.733-124.464-27.733
								c-17.063,2.979-79.318-3.299-84.813,5.511c-9.441,15.135,34.793,47.047,37.435,59.413
								c14.394,0.671,102.495,10.294,116.561,11.927c-0.609,11.819-8.843,129.992-8.047,154.255c1.808,0.55,5.176,0.518,6.988,0.028
								c14.257-31.654,49.152-136.719,52.359-155.356C582.275,633.406,595.223,600.285,584.528,595.391z"/>
						</g>
						<g>
							<path style="fill:#FFFFFF;" d="M449.539,798.792l-6.253-0.028c-1.332,1.829-8.094,5.526-10.363,13.164
								c10.853,1.934,12.117,1.522,23.398,0.936C452.886,805.53,454.659,803.202,449.539,798.792z"/>
							<path style="fill:#33242E;" d="M499.95,595.391c-38.165-19.519-121.831-29.304-121.831-29.304
								c-41.499,8.096-34.447,56.878-30.706,76.442c12.879,0.672,85.396,1.175,97.981,2.808
								c-0.544,11.818-2.819,129.164-2.107,153.427c1.617,0.55,4.631,0.518,6.253,0.028
								c12.757-31.654,43.981-136.719,46.851-155.356C497.934,633.406,509.52,600.285,499.95,595.391z"/>
						</g>
						<path style="fill:#E54A6E;" d="M306.438,612.156c0.007,0.562,0.02,1.13,0.039,1.692c0.249,7.477,1.443,14.723,4.017,21.407
							c6.749,17.52,20.175,28.693,36.392,35.908h47.904c-0.064-0.274-0.147-0.53-0.211-0.811c-1.641-7.304-1.564-16.869-1.34-26.005
							c0.127-4.846,0.287-9.577,0.249-13.778c-0.198-25.417,11.204-59.856-9.533-71.655c-12.022-6.845-38.748-0.9-47.316-13.459
							c-2.738-3.122-4.954-6.838-6.915-10.944c-1.443-3.007-2.579-6.103-3.505-9.264c-3.518,11.11-7.011,22.979-10.457,35.639
							C311.584,576.198,306.687,594.63,306.438,612.156z"/>
					</g>
					<path style="fill:#FFC44E;" d="M355.244,414.356c3.691-19.935,25.085-22.84,29.37-8.939
						c8.865,28.757,13.68,100.619,8.973,120.034c-2.115,8.725-12.433,13.117-21.743,8.298c-8.557-4.429-10.335-9.69-11.635-17.735
						C356.482,492.926,353.006,426.445,355.244,414.356z"/>
					<path style="fill:#FFC44E;" d="M360.99,513.318c3.247-7.139,17.835-2.53,24.262-3.831c8.627-1.745,20.086,2.069,27.454-3.192
						l17.877,11.492c-4.352,6.435-11.753,9.949-17.398,15.165c-4.914,4.541-39.267,15.01-47.087,10.374
						C360.759,540.161,358.219,519.411,360.99,513.318z"/>
					<path style="fill:#FFB278;" d="M413.953,503.072c2.206-1.157,6.941,0.417,9.465-0.096c2.807-0.571,3.687-2.537,7.022-2.282
						c2.357,0.18,4.224,1.911,6.668,1.911c2.706,0,4.267-1.921,7.379-1.272c3.551,0.741,8.993,7.603,9.72,7.517l-10.215,8.939
						c-2.529-1.023-11.85,0.387-16.6,0.638c-6.317,0.334-12.613,0.869-19.055,0.542
						C408.546,514.741,409.577,505.367,413.953,503.072z"/>
					<g>
						<path style="fill:#626B72;" d="M580.906,512.675c0,2.439-2.323,4.416-5.191,4.416H416.088c-2.867,0-5.19-1.977-5.19-4.416l0,0
							c0-2.438,2.323-4.416,5.19-4.416h159.627C578.583,508.259,580.906,510.236,580.906,512.675L580.906,512.675z"/>
						<g>
							<g>
								<path style="fill:#C1C1C1;" d="M613.843,513.045c-0.509,2.284-2.775,4.136-5.058,4.136H480.166
									c-2.284,0-3.646-1.852-3.043-4.136l22.75-86.022c0.604-2.284,2.893-4.136,5.112-4.136h124.944
									c2.219,0,3.605,1.852,3.095,4.136L613.843,513.045z"/>
							</g>
							<g>
								<path style="fill:#626B72;" d="M616.599,513.045c-0.508,2.284-2.77,4.136-5.054,4.136H482.926
									c-2.284,0-3.647-1.852-3.045-4.136l22.678-86.022c0.602-2.284,2.889-4.136,5.108-4.136H632.61
									c2.218,0,3.606,1.852,3.099,4.136L616.599,513.045z"/>
							</g>
							<g>
								<path style="fill:#FFFFFF;" d="M562.768,470.034c-0.552,2.286-2.831,4.14-5.087,4.14c-2.257,0-3.634-1.854-3.075-4.14
									c0.557-2.286,2.836-4.139,5.086-4.139C561.944,465.895,563.32,467.749,562.768,470.034z"/>
							</g>
						</g>
					</g>
				</g>
				<g>
					<polygon style="fill:#FFFDEE;" points="393.953,471.648 394.582,475.961 396.052,486.07 398.812,505.015 400.458,516.326 
						420.252,516.326 421.744,506.073 421.898,505.015 424.657,486.07 426.128,475.961 426.755,471.648 					"/>
					<polygon style="fill:#844512;" points="396.052,486.07 398.812,505.015 421.898,505.015 424.657,486.07 					"/>
					<path style="opacity:0.5;fill:#844512;" d="M393.953,471.648l0.629,4.312l1.47,10.109l2.76,18.945l1.646,11.311h19.794
						l2.074-14.892c-1.677,0.051-11.122,2.639-15.081-6.521c-1.201-2.778-2.092-5.763-2.771-8.842
						c-1.041-4.703-1.575-9.631-1.92-14.421H393.953z"/>
					<g>
						<path style="fill:#91918D;" d="M393.672,469.103c0,1.25,1.013,2.262,2.262,2.262h28.842c1.25,0,2.262-1.013,2.262-2.262l0,0
							c0-1.249-1.012-2.262-2.262-2.262h-28.842C394.684,466.841,393.672,467.854,393.672,469.103L393.672,469.103z"/>
						<path style="fill:#91918D;" d="M389.712,472.497c0,1.913,0.887,3.464,1.979,3.464h37.325c1.094,0,1.98-1.551,1.98-3.464l0,0
							c0-1.913-0.887-3.464-1.98-3.464h-37.325C390.599,469.033,389.712,470.584,389.712,472.497L389.712,472.497z"/>
					</g>
				</g>
			</g>
			<g>
				<g>
					<g>
						<polygon style="fill:#3C4042;" points="773.583,608.388 777.518,795.387 761.955,795.387 766.635,608.388 						"/>
						<g>
							<g>
								<path style="fill:#3C4042;" d="M770.691,778.214c2.862,0.954,76.326,30.531,76.326,30.531v9.541h-76.326V778.214z"/>
								<path style="fill:#3C4042;" d="M769.737,778.214c-2.863,0.954-76.327,30.531-76.327,30.531v9.541h76.327V778.214z"/>
							</g>
							<path style="fill:#828A8E;" d="M770.691,778.214c-1.539,0.954-41.025,30.531-41.025,30.531v9.541h41.025V778.214z"/>
						</g>
					</g>
					<g>
						<path style="fill:#892743;" d="M634.154,651.443c1.596,12.131,6.755,22.206,19.103,26.816h31.815
							c2.445-8.76,3.939-18.713,9.22-26.816c0.287-0.44,0.58-0.881,0.893-1.309c7.751-10.733,20.852-16.792,30.347-25.411
							c13.375-12.137,19.983-27.69,23.163-46.5c5.446-32.198-3.371-66.464,2.388-97.775c0,0,10.764-57.264,3.307-49.194
							c-0.428,0.46-0.855,0.951-1.277,1.475c-0.006,0.006-0.006,0.006-0.013,0.013c-17.801,21.906-32.549,94.487-40.588,108.942
							c-16.709,30.027-69.069,17.404-74.414,58.937C636.121,615.995,632.067,635.501,634.154,651.443z"/>
						<path style="fill:#AA2D4B;" d="M644.338,651.443c0.127,4.469,0.44,8.089,0.44,9.992c0,7.157,3.467,13.414,8.632,16.824
							h218.885c16.217-7.215,29.644-18.388,36.393-35.907c2.765-7.189,3.939-15.023,4.054-23.1
							c-0.249-17.526-5.146-35.958-9.322-51.269c-4.341-15.936-8.753-30.627-13.197-44.118
							c-31.54-95.687-65.078-131.096-92.15-124.59c-0.121,0.025-0.249,0.096-0.377,0.102c-19.984,1.271-34.248,14.455-44.584,33.354
							c-0.006,0.006-0.006,0.006-0.013,0.013c-27.059,49.468-27.218,138.036-32.709,154.17
							c-6.927,20.335-45.886,10.931-66.075,28.514C644.772,623.746,643.999,640.257,644.338,651.443z"/>
					</g>
				</g>
				<g>
					<path style="fill:#4F2D34;" d="M825.925,341.271c-1.514-4.398-6.174-18.758-10.825-19.86l-50.72,37.934
						c-3.848,5.422-5.598,12.566-7.604,18.944c-2.841,9.023-13.764-5.003-14.185,4.466c-0.367,8.32-8.552,45.827-2.691,52.151
						c4.811,5.192,28.396,4.944,35.168,6.714c9.039,2.362,39.263,7.776,47.654,3.78c8.344-3.974-8.647-15.839-3.61-23.055
						c9.81-14.059,12.701-31.564,11.88-48.725C830.495,363.198,829.323,351.148,825.925,341.271z"/>
					<g>
						<path style="fill:#AFAF2B;" d="M767.228,428.313l0.778-8.227c-17.225-5.281-25.322,8.135-32.487,20.032
							c-9.24,15.342-15.204,31.351-21.083,48.683c-1.554,4.58-3.344,9.123-3.412,14.034c-1.352,10.3,0.96,21.526,6.002,23.89
							c4.981,2.336,12.236,1.512,20.283-7.245C748.679,497.459,768.597,444.622,767.228,428.313z"/>
						<path style="fill:#FFB278;" d="M696.431,466.061c1.233,9.9,19.997,25.559,29.308,30.967
							c8.862,5.147,28.477,12.787,31.625,23.441c4.211,14.258-15.891,17.315-25.964,13.372
							c-12.848-5.028-23.273-16.387-31.871-26.353c-7.973-9.238-12.774-19.674-16.548-30.664L696.431,466.061z"/>
						<g>
							<g>
								<polygon style="fill:#FFFDEE;" points="671.686,441.206 672.315,445.518 673.785,455.627 676.545,474.573 678.191,485.883 
									697.984,485.883 699.477,475.63 699.631,474.573 702.39,455.627 703.86,445.518 704.488,441.206 								"/>
								<polygon style="fill:#844512;" points="673.785,455.627 676.545,474.573 699.631,474.573 702.39,455.627 								"/>
								<path style="opacity:0.5;fill:#844512;" d="M671.686,441.206l0.628,4.312l1.47,10.109l2.76,18.945l1.646,11.311h19.794
									l2.074-14.892c-1.677,0.051-11.122,2.639-15.081-6.522c-1.201-2.778-2.093-5.763-2.771-8.842
									c-1.041-4.703-1.575-9.631-1.92-14.421H671.686z"/>
								<g>
									<path style="fill:#91918D;" d="M671.405,438.661c0,1.249,1.013,2.262,2.262,2.262h28.842c1.25,0,2.262-1.013,2.262-2.262
										l0,0c0-1.249-1.013-2.262-2.262-2.262h-28.842C672.417,436.399,671.405,437.412,671.405,438.661L671.405,438.661z"/>
									<path style="fill:#91918D;" d="M667.445,442.054c0,1.913,0.887,3.464,1.979,3.464h37.325c1.094,0,1.98-1.551,1.98-3.464
										l0,0c0-1.913-0.887-3.464-1.98-3.464h-37.325C668.332,438.59,667.445,440.141,667.445,442.054L667.445,442.054z"/>
								</g>
							</g>
							<g>
								<path style="fill:#FFB278;" d="M670.826,457.211c-0.645-2.413,3.169-5.861,5.25-6.556c2.826-0.943,6.032-1.212,8.859-0.629
									c1.18,3.408-5.826,3.758-7.695,4.328c-0.35,2.365-3.679,11.483-6.504,5.68L670.826,457.211z"/>
								<path style="fill:#FFB278;" d="M671.43,462.666c-0.658-2.41,3.884-6.029,6.322-6.808c3.307-1.056,7.032-1.447,10.284-0.963
									c1.24,3.394-6.886,4.007-9.075,4.651c-0.491,2.398-4.686,11.719-7.744,5.972L671.43,462.666z"/>
								<path style="fill:#FFB278;" d="M672.315,467.853c-0.666-2.407,3.386-5.955,5.59-6.7c2.992-1.011,6.383-1.354,9.367-0.834
									c1.224,3.394-6.181,3.906-8.16,4.52c-0.385,2.382-3.959,11.609-6.91,5.851L672.315,467.853z"/>
								<path style="fill:#FFB278;" d="M674.4,471.314c-0.015-2.159,3.974-3.977,5.891-3.991c2.6-0.02,5.376,0.618,7.639,1.855
									c0.248,3.122-5.761,1.534-7.47,1.501c-0.818,1.854-5.646,8.47-6.76,2.935L674.4,471.314z"/>
							</g>
							<path style="fill:#FFB278;" d="M699.889,457.696c-0.963-2.112-2.271-6.798,0.085-8.586c1.367,1.355,2.064,3.89,2.979,5.612
								c0.938,1.763,2.181,3.076,2.075,5.155c-0.205,4.003-3.618,9.577-4.895,11.705
								C700.133,471.583,695.858,461.259,699.889,457.696z"/>
						</g>
					</g>
					<g>
						<g>
							<path style="fill:#AFAF2B;" d="M723.447,482.585c0.503,3.509,1.296,6.446,2.258,9.104c2.773,7.682,6.936,13.07,9.535,23.263
								c3.48,13.677,6.685,39.127,1.057,52.413c-5.669,13.374-5.53,15.494-12.292,28.487c-4.407,8.47,101.117,19.788,101.812,13.181
								c1.763-16.668-12.475-38.08-15.423-53.666c-5.794-30.625,11.438-53.444,21.053-79.858
								c3.552-9.759,12.699-22.598,12.521-32.885c-0.065-3.754-1.37-7.176-4.662-9.975c-10.017-8.537-17.149-13.075-36.233-20.396
								l-37.733,2.723c-7.563,4.395-18.828,5.482-21.801,14.481c-2.332,7.062-4.1,14.11-7.178,21.086
								C731.288,462.04,721.704,470.39,723.447,482.585z"/>
							<g>
								<path style="fill:#FFB278;" d="M760.06,387.832c0.254,2.094,0.983,4.15,1.5,6.193c0.606,2.407,1.666,5.299,2.56,8.243
									c0.849,2.771,1.13,8.383,0.958,12.367c-0.064,1.443-0.186,2.676-0.364,3.48c-0.594,2.688-0.147,8.836,1.602,14.193
									c1.361-3.505,3.518-6.806,6.544-7.272c3.499,3.869,5.414,8.639,7.815,13.05c11.103-5.995,28.119-19.415,31.062-22.685
									c-2.101-1.098-4.105-2.49-5.957-4.086l-0.019-0.013c-6.781-5.861-11.5-14.481-11.251-21.427
									c0.077-2.158,0.339-6.161,0.868-10.382c0.837-6.531,2.331-13.612,4.821-15.272L760.06,387.832z"/>
								<path style="fill:#E5804E;" d="M800.2,364.224c-2.49,1.66-3.984,8.737-4.82,15.274c-2.757,3.531-4.647,8.515-7.968,11.895
									c-4.615,4.704-14.071,14.064-23.292,10.879c-0.894-2.946-1.95-5.835-2.559-8.242c-0.517-2.044-1.247-4.098-1.499-6.194
									L800.2,364.224z"/>
							</g>
							<g>
								<path style="fill:#663D43;" d="M793.996,310.874l-7.786,14.299l-0.745,1.36c-1.604,0.219-3.282,0.687-4.997,1.343
									c-7.241,2.769-15.109,8.855-20.31,13.354c-2.375,2.056-5.075,5.102-7.64,8.007c-4.827,5.44-9.203,10.375-10.203,7.278
									c-7.443-23.058-7.706-43.298,5.331-50.818c6.538-3.769,12.711-6.195,25.165-2.341c1.253,0.385,4.65,1.885,8.669,3.474
									C785.536,308.424,790.227,310.122,793.996,310.874z"/>
								<path style="fill:#FFB278;" d="M797.438,335.592c-3.457-2.144-6.508-5.237-9.439-8.335
									c-0.621-0.654-1.211-1.354-1.789-2.084c-2.488-3.135-4.674-6.807-7.2-9.836c-6.381-1.399-13.383-1.042-18.827,0.902
									c-6.35,2.273-10.609,10.525-13.624,21.46c-2.61,9.458-4.281,20.93-5.573,32.264c-1.051,9.263,9.094,20.621,14.775,28.523
									c5.852,8.146,26.617-5.61,33.159-11.281c6.528-5.657,9.616-10.931,10.755-18.532c0.105-0.749,0.202-1.519,0.274-2.311
									C801.25,352.619,799.406,343.303,797.438,335.592z"/>
								<g>
									<path style="fill:#5B2500;" d="M785.91,350.7c-0.435,0.563-0.44,1.486,0.025,2.078c-1.45-0.409-2.67-1.78-2.14-2.96
										c-0.317,0.645-0.635,1.371-0.196,2.014c-1.146-0.003-2.33-1.011-2.561-1.697c0.175,2.061,1.66,2.245,2.882,3.513
										l3.924,2.663C787.845,354.46,785.048,352.578,785.91,350.7z"/>
									<g>
										<path style="fill:#E5804E;" d="M780.636,354.277c-2.763,2.422-4.413,7.108-4.413,7.108
											c-0.368,0.624-0.506,0.513-0.622,1.21c5.418,0.112,9.673,1.158,14.516,3.17
											C790.792,361.766,787.09,348.621,780.636,354.277z"/>
										<g>
											<path style="fill:#FFFFFF;" d="M788.797,363.654c-0.582-0.415-1.515-0.767-2.614-1.062
												c-2.887-0.775-6.931-1.142-8.909-1.119c-0.526,0.004-0.902,0.031-1.081,0.09c0.05-0.282,0.246-0.798,0.547-1.439v-0.007
												c1.24-2.661,4.229-7.476,6.167-6.877c1.909,0.589,3.252,2.415,4.236,4.75
												C787.862,359.696,788.39,361.685,788.797,363.654z"/>
										</g>
										<path style="fill:#192E42;" d="M787.143,357.991c-0.049,1.745-0.39,3.327-0.96,4.601
											c-2.887-0.775-6.931-1.142-8.909-1.119c-0.198-0.429-0.377-0.877-0.534-1.349v-0.007c1.24-2.661,4.229-7.476,6.167-6.877
											C784.816,353.829,786.159,355.656,787.143,357.991z"/>
										<path style="fill:#FFFFFF;" d="M780.971,359.172c0.056,0.672-0.231,1.225-0.638,1.233
											c-0.408,0.008-0.784-0.53-0.839-1.202c-0.056-0.673,0.229-1.225,0.638-1.234
											C780.541,357.96,780.917,358.499,780.971,359.172z"/>
									</g>
								</g>
								<g>
									<path style="fill:#5B2500;" d="M751.75,347.043c-0.364,0.561-0.357,1.484,0.045,2.077
										c-1.237-0.413-2.294-1.787-1.857-2.965c-0.261,0.644-0.524,1.368-0.142,2.013c-0.977-0.008-1.996-1.018-2.203-1.704
										c0.176,2.061,1.443,2.249,2.498,3.522l3.373,2.674C753.444,350.808,751.038,348.918,751.75,347.043z"/>
									<g>
										<path style="fill:#E5804E;" d="M747.064,350.605c-1.685,2.515-2.172,6.967-2.172,6.967
											c-0.176,0.608-0.297,0.524-0.273,1.171c4.08-0.506,7.436-0.03,11.389,1.261
											C755.877,356.288,750.996,344.733,747.064,350.605z"/>
										<g>
											<path style="fill:#FFFFFF;" d="M754.68,358.23c-0.503-0.312-1.258-0.529-2.127-0.674
												c-2.288-0.384-5.381-0.264-6.859-0.021c-0.392,0.063-0.67,0.129-0.794,0.203c-0.009-0.263,0.055-0.754,0.18-1.372
												l-0.001-0.006c0.504-2.561,1.973-7.281,3.521-6.952c1.525,0.322,2.825,1.836,3.936,3.85
												C753.348,354.73,754.062,356.483,754.68,358.23z"/>
										</g>
										<path style="fill:#192E42;" d="M752.535,353.257c0.244,1.596,0.238,3.074,0.017,4.299
											c-2.288-0.384-5.381-0.264-6.859-0.021c-0.217-0.369-0.42-0.756-0.615-1.169l-0.001-0.006
											c0.504-2.561,1.973-7.281,3.521-6.952C750.124,349.73,751.424,351.243,752.535,353.257z"/>
										<path style="fill:#FFFFFF;" d="M748.468,355.28c0.15,0.606,0.024,1.141-0.28,1.195c-0.306,0.053-0.673-0.394-0.823-1.001
											c-0.148-0.606-0.024-1.142,0.282-1.195C747.951,354.225,748.319,354.673,748.468,355.28z"/>
									</g>
								</g>
								<path style="fill:#E5804E;" d="M750.338,376.424c0,0,0.312,0.189,0.836,0.54c0.258,0.183,0.581,0.392,0.953,0.601
									c0.373,0.211,0.763,0.471,1.238,0.701c0.461,0.24,0.96,0.499,1.506,0.727c0.53,0.26,1.125,0.445,1.717,0.672
									c0.604,0.204,1.24,0.376,1.884,0.528c0.326,0.071,0.651,0.141,0.98,0.212l0.999,0.124c0.332,0.064,0.667,0.061,1.001,0.087
									c0.333,0.022,0.666,0.049,0.995,0.024c0.329-0.008,0.657-0.017,0.98-0.024c0.323-0.034,0.641-0.066,0.954-0.1
									c0.319-0.013,0.613-0.114,0.918-0.154c0.297-0.058,0.601-0.086,0.875-0.182c0.556-0.164,1.102-0.289,1.578-0.492
									c0.242-0.09,0.474-0.176,0.696-0.259c0.215-0.1,0.418-0.198,0.611-0.287c0.385-0.18,0.731-0.335,0.99-0.504
									c0.539-0.309,0.868-0.48,0.868-0.48s-0.226,0.277-0.655,0.755c-0.207,0.249-0.489,0.514-0.843,0.791
									c-0.172,0.145-0.357,0.298-0.552,0.46c-0.208,0.143-0.436,0.277-0.673,0.427c-0.461,0.32-1.013,0.573-1.605,0.83
									c-0.594,0.245-1.246,0.464-1.934,0.613c-0.347,0.066-0.699,0.134-1.057,0.202c-0.359,0.051-0.728,0.07-1.097,0.094
									c-0.373,0.037-0.746,0.019-1.12,0.006c-0.375-0.019-0.756-0.007-1.126-0.069l-1.115-0.172
									c-0.364-0.09-0.724-0.178-1.084-0.265c-0.362-0.072-0.702-0.212-1.041-0.339c-0.334-0.135-0.68-0.232-0.989-0.396
									c-0.637-0.291-1.237-0.597-1.768-0.954c-0.552-0.316-1.024-0.697-1.45-1.045c-0.444-0.322-0.793-0.71-1.111-1.022
									c-0.329-0.307-0.568-0.606-0.758-0.855C750.548,376.719,750.338,376.424,750.338,376.424z"/>
								<path style="fill:#E5804E;" d="M757.489,384.029c0,0,0.115,0.083,0.303,0.236c0.195,0.155,0.449,0.349,0.787,0.563
									c0.325,0.216,0.723,0.431,1.156,0.614c0.216,0.098,0.448,0.163,0.678,0.231c0.233,0.057,0.471,0.122,0.712,0.126
									c0.239,0.041,0.478,0.022,0.713,0.017c0.228-0.048,0.465-0.05,0.68-0.132c0.444-0.109,0.824-0.329,1.166-0.517
									c0.313-0.222,0.597-0.408,0.772-0.57c0.191-0.149,0.301-0.234,0.301-0.234s-0.054,0.125-0.167,0.344
									c-0.06,0.105-0.115,0.253-0.223,0.385c-0.102,0.138-0.218,0.298-0.36,0.462c-0.158,0.144-0.32,0.321-0.529,0.465
									c-0.213,0.136-0.431,0.302-0.701,0.392c-0.257,0.12-0.542,0.187-0.837,0.245c-0.297,0.022-0.601,0.052-0.902,0.014
									c-0.3-0.021-0.591-0.107-0.87-0.188c-0.279-0.086-0.535-0.216-0.772-0.351c-0.243-0.127-0.453-0.292-0.645-0.443
									c-0.188-0.161-0.365-0.315-0.501-0.482c-0.288-0.307-0.484-0.626-0.593-0.832
									C757.548,384.158,757.489,384.029,757.489,384.029z"/>
								<path style="fill:#5B2500;" d="M755.087,341.395c-2.803-4.672-8.399-1.704-9.727,2.831c1.018-2.26,2.994-2.242,4.957-1.622
									C751.217,342.888,756.373,343.713,755.087,341.395z"/>
								<path style="fill:#5B2500;" d="M778.157,344.919c3.237-4.967,11.113-2.655,13.419,1.702
									c-1.629-2.131-4.287-1.888-6.859-1.047C783.537,345.961,776.692,347.37,778.157,344.919z"/>
								<path style="fill:#E5804E;" d="M757.146,370.471c2.054-3.129,3.286-7.799,2.954-10.112c0,0-3.175,8.315-5.412,10.37
									c2.068,1.172,3.963,3.199,6.391,1.46C759.827,372.586,757.765,371.9,757.146,370.471z"/>
								<path style="fill:#663D43;" d="M819.131,335.353c-0.147,3.108-0.676,6.152-1.565,8.946
									c-3.778,11.887-13.423,20.26-22.353,28.479c-0.025-11.657,4.739-20.699-0.819-32.555
									c-3.063-6.527-7.556-7.646-12.937-11.556c-0.338-0.244-0.663-0.511-0.989-0.792c-1.786-1.519-3.347-3.51-4.224-5.646
									c-0.726-1.742-3.897-7.951-4.022-8.064c0,0,0.907-1.204,2.624-2.767c0.1-0.087,0.198-0.18,0.298-0.274
									c1.546-1.377,3.684-2.991,6.335-4.294c6.331-3.127,15.607-4.546,26.88,2.972c4.981,3.319,8.148,8.682,9.695,14.643
									C818.963,327.971,819.309,331.702,819.131,335.353z"/>
								<path style="fill:#4F2D34;" d="M779.01,315.337c-6.381-1.399-13.383-1.042-18.827,0.902
									c-6.35,2.273-10.609,10.525-13.624,21.46l-0.343-0.333c-2.551-2.627,1.974-14.252,3.887-17.743
									c2.888-5.263,8.538-8.453,14.12-9.878c4.443-1.138,7.816-0.269,10.624,1.654
									C776.378,312.447,777.738,313.808,779.01,315.337z"/>
								<path style="fill:#4F2D34;" d="M819.131,335.353c-0.147,3.108-0.676,6.152-1.565,8.946
									c-3.778,11.887-13.423,20.26-22.353,28.479c-4.331-19.001,4.739-20.699-0.819-32.555
									c-3.063-6.527-7.556-7.646-12.937-11.556c-0.338-0.244-0.663-0.511-0.989-0.792c-1.786-1.519-3.347-3.51-4.224-5.646
									c-0.726-1.742-3.897-7.951-4.022-8.064c0,0,0.907-1.204,2.624-2.767c0.1-0.087,0.198-0.18,0.298-0.274
									c5.521,3.716,7.042,11.463,12.621,15.608c6.957,5.156,18.249,5.713,25.717,1.223c1.582-0.954,3.145-2.138,4.573-3.509
									C818.963,327.971,819.309,331.702,819.131,335.353z"/>
								<g>
									<path style="fill:#FFB278;" d="M813.23,367.216c-0.269-3.944-3.907-7.244-7.69-5.744
										c-11.093,4.4-7.739,14.477-7.739,14.477c0.635,3.931,6.747,3.629,9.367,2.101
										C810.491,376.114,813.491,371.025,813.23,367.216z"/>
									<path style="fill:#E5804E;" d="M803.823,365.501c-1.176,1.863-3.256,6.04-3.256,6.04c-0.363,3.166,6.112,2.311,6.352-1.445
										c0.107-1.679-1.712-3.061,0.315-4.256c1.395-0.822,2.834,0.184,3.561,1.4C811.07,363.649,805.671,362.571,803.823,365.501z
										"/>
								</g>
							</g>
							<path style="fill:#7F7D1F;" d="M724.006,595.852c-4.407,8.47,101.117,19.788,101.812,13.181
								c1.763-16.668-12.475-38.08-15.423-53.666c-5.794-30.625,11.438-53.444,21.053-79.858
								c3.552-9.759,12.699-22.598,12.521-32.885c-4.043,6.715-7.598,14.639-11.316,20.17c-8.583,12.747-20.763,24.602-33.564,33.24
								c-14.482,9.764-28.883,9.534-45.33,6.06c-7.589-1.606-20.723-4.238-28.053-10.405c2.773,7.682,6.936,13.07,9.535,23.263
								c3.48,13.677,6.685,39.127,1.057,52.413C730.629,580.739,730.767,582.859,724.006,595.852z"/>
							<path style="fill:#7F7D1F;" d="M772.797,424.966c0.019,0.026,0.045,0.045,0.064,0.07c3.499,3.869,5.414,8.639,7.815,13.05
								c0.958,1.762,1.993,3.474,3.243,5.038c5.593-2.266,12.38-6.302,16.856-10.484c3.186-2.975,6.168-6.008,9.008-9.258
								c1.494-1.705,5.063-4.833,5.038-6.704l-14.685-11.812c-0.485,3.543-20.195,20.137-26.496,20.112h-0.039
								c-0.102,0-0.205,0-0.307-0.006C773.129,424.972,772.963,424.966,772.797,424.966z"/>
							<path style="fill:#7F7D1F;" d="M762.148,438.386c0.185-1.743,7.687-12.884,10.713-13.35c0.243-0.038,0.491-0.057,0.741-0.057
								h-0.281c-0.006,0-0.019-0.006-0.026-0.006c-5.624-1.417-8.554-18.037-8.593-18.19
								C759.913,406.782,759.096,435.181,762.148,438.386z"/>
							<g>
								<g>
									<path style="fill:#7F7D1F;" d="M772.688,440.277c0.004,0.823,0.673,1.487,1.495,1.484c0.823-0.003,1.488-0.673,1.484-1.496
										c-0.003-0.823-0.672-1.487-1.495-1.484C773.349,438.784,772.684,439.454,772.688,440.277z"/>
									<path style="fill:#7F7D1F;" d="M766.188,464.778c0.004,0.823,0.673,1.487,1.497,1.484c0.823-0.003,1.486-0.673,1.484-1.496
										c-0.004-0.823-0.673-1.487-1.496-1.484C766.85,463.285,766.186,463.955,766.188,464.778z"/>
								</g>
								<path style="fill:#7F7D1F;" d="M760.334,490.553c0.004,0.823,0.673,1.487,1.496,1.484c0.822-0.003,1.486-0.673,1.484-1.496
									c-0.004-0.823-0.673-1.487-1.496-1.484C760.995,489.06,760.331,489.73,760.334,490.553z"/>
							</g>
							<path style="fill:#7F7D1F;" d="M755.769,513.386l1.265-0.173c-2.388-17.517,9.79-79.393,15.843-86.878
								c0.393-0.486,0.59-0.507,0.599-0.507l-0.096-1.273c-0.505,0.038-0.995,0.358-1.496,0.977
								C765.743,433.126,753.358,495.702,755.769,513.386z"/>
						</g>
						<g>
							<path style="fill:#AFAF2B;" d="M820.576,432.401l2.42-7.902c20.42,2.495,23.74,18.294,26.669,32.298
								c3.777,18.059,3.801,35.333,3.215,53.789c-0.155,4.877-0.043,9.822-1.912,14.368c-2.629,10.054-7.182,13.009-13.483,13.033
								c-6.223,0.023-15.961,2.554-21.069-8.939C813.012,503.935,812.677,446.821,820.576,432.401z"/>
							<path style="fill:#7F7D1F;" d="M823.441,497.125l31.923,8.3c2.756,1.52,0.565,19.717-1.917,23.621
								c-4.05,6.368-13.056,11.356-20.428,9.736C813.255,534.44,818.029,509.797,823.441,497.125z"/>
							<g>
								<path style="fill:#FFB278;" d="M832.534,423.63c0.153-0.022,0.301-0.039,0.453-0.059c0.167,0.309,0.384,0.596,0.506,0.948
									c4.338,12.553,26.11,68.746,23.882,91.181c0,0-1.078,7.184-2.147,9.324c-2.758,5.523-10.926,9.593-18.536,10.167
									c-10.913,0.824-14.241-12.193-15.55-21.62c-4.028-28.985,1.807-58.86-0.645-87.735
									C824.491,425.001,828.496,424.22,832.534,423.63z"/>
								<g>
									<path style="fill:#FFB278;" d="M817.167,399.163c4.492-5.922,11.64-2.18,15.187-8.806
										c0.979-1.828,4.189-20.619,6.766-19.008c1.833,1.145-1.511,24.644-2.112,29.26c-0.836,6.409-4.975,20.032-2.397,27.764
										l-13.21,3.222c-0.099-4.121-0.693-7.339-1.925-10.787C818.052,416.828,815.603,401.226,817.167,399.163z"/>
									<path style="fill:#FFB278;" d="M813.097,395.905c0.302-1.867,0.626-5.062,2.506-6.192c2.009-1.208,4.906,0.134,5.814,2.14
										c-0.269-5.339,4.741-7.199,6.095-1.618c0.645-1.967,2.53-6.011,4.931-3.51c1.309,1.365,0.949,8.279,0.878,9.43
										l-14.819,6.121c-4.185-1.066-0.236,6.012-2.899,7.763C811.588,407.208,812.445,399.923,813.097,395.905z"/>
									<path style="fill:#FFB278;" d="M843.653,393.29c1.041,2.49-0.89,5.166-2.044,7.384c-1.372,2.637-1.596,4.257-2.151,7.08
										c-1.06,5.401-5.295,9.783-6.782,14.82l-0.967-13.209C833.038,404.591,837.97,394.811,843.653,393.29z"/>
								</g>
							</g>
						</g>
					</g>
				</g>
				<g>
					<path style="fill:#E54A6E;" d="M620.408,657.828v14.046c0,3.524,2.861,6.385,6.385,6.385h210.693
						c3.525,0,6.385-2.86,6.385-6.385v-14.046c0-3.531-2.86-6.385-6.385-6.385H626.793
						C623.269,651.443,620.408,654.297,620.408,657.828z"/>
					<path style="fill:#1E141A;" d="M668.539,591.693c10.161-9.073,66.513-21.596,67.852-28.889c0,0,12.349-5.024,28.311-4.385
						c23.002,0.92,48.802,7.604,48.802,7.604c8.278,15.296,19.746,24.599,23.004,43.151c2.485,14.153,1.634,29.22-9.153,39.72
						c-22.983,22.372-134.498,12.805-148.206,8.487C665.123,652.964,641.725,615.634,668.539,591.693z"/>
					<path style="fill:#E54A6E;" d="M801.158,677.447c-0.082,0.281-0.185,0.536-0.268,0.811h71.406
						c16.217-7.215,29.644-18.388,36.393-35.907c2.765-7.189,3.939-15.023,4.054-23.1c-0.249-17.526-5.146-35.958-9.322-51.269
						c-4.341-15.936-8.753-30.627-13.197-44.118c-1.449,6.136-3.537,12.093-6.959,17.743c-2.484,4.105-5.287,7.821-8.753,10.943
						c-10.848,12.559-44.686,6.615-59.907,13.459c-26.248,11.799-11.818,46.238-12.067,71.655c-0.045,4.201,0.16,8.932,0.313,13.778
						C803.137,660.579,803.233,670.143,801.158,677.447z"/>
					<g>
						<path style="fill:#FFB278;" d="M718.409,805.185c4.963-47.716,8.125-191.028,19.382-207.476
							c21.785-31.83,25.991,16.574,29.058,32.368c13.868,71.428-32.14,140.879-40.962,175.108H718.409z"/>
						<path style="fill:#FFB278;" d="M710.983,805.185h-7.401c-8.662-48.28-46.372-186.048-37.401-203.762
							c13.849-27.35,26.737,3.746,33.96,18.03C733.155,684.747,709.469,770.146,710.983,805.185z"/>
						<path style="fill:#FFFFFF;" d="M718.094,804.547h8.3c3.52,3.121,5.746,7.662,8.938,14.046
							c5.625,0.327-14.046,0.319-19.738,0.264C715.483,814.588,716.817,807.739,718.094,804.547z"/>
						<path style="fill:#FFFFFF;" d="M711.239,804.547h-8.044c-3.412,3.121-11.057,7.342-14.151,13.727
							c-5.453,0.327,19.102,0.638,24.617,0.583C713.77,814.588,712.477,807.739,711.239,804.547z"/>
					</g>
				</g>
			</g>
		</g>
		<g>
			<g>
				<g>
					<polygon style="fill:#3C4042;" points="1120.07,603.254 1124.006,790.253 1108.442,790.253 1113.122,603.254 					"/>
					<g>
						<g>
							<path style="fill:#3C4042;" d="M1117.178,773.08c2.862,0.954,76.327,30.531,76.327,30.531v9.541h-76.327V773.08z"/>
							<path style="fill:#3C4042;" d="M1116.224,773.08c-2.862,0.954-76.327,30.531-76.327,30.531v9.541h76.327V773.08z"/>
						</g>
						<path style="fill:#828A8E;" d="M1117.178,773.08c-1.538,0.954-41.025,30.531-41.025,30.531v9.541h41.025V773.08z"/>
					</g>
				</g>
				<g>
					<path style="fill:#892743;" d="M980.641,646.309c1.596,12.131,6.755,22.206,19.103,26.816h31.815
						c2.445-8.76,3.94-18.713,9.22-26.816c0.287-0.44,0.581-0.881,0.894-1.309c7.751-10.733,20.852-16.792,30.346-25.411
						c13.376-12.137,19.984-27.69,23.164-46.499c5.446-32.198-3.371-66.465,2.388-97.775c0,0,10.764-57.264,3.307-49.194
						c-0.428,0.46-0.856,0.951-1.277,1.475c-0.007,0.006-0.007,0.006-0.013,0.012c-17.8,21.906-32.549,94.487-40.588,108.942
						c-16.709,30.027-69.069,17.405-74.413,58.937C982.607,610.861,978.553,630.367,980.641,646.309z"/>
					<path style="fill:#AA2D4B;" d="M990.825,646.309c0.128,4.469,0.441,8.09,0.441,9.992c0,7.157,3.467,13.414,8.632,16.823
						h218.886c16.217-7.214,29.644-18.388,36.393-35.907c2.765-7.189,3.939-15.023,4.054-23.1
						c-0.249-17.526-5.146-35.958-9.322-51.269c-4.341-15.936-8.753-30.627-13.197-44.118
						c-31.54-95.687-65.079-131.096-92.15-124.59c-0.121,0.026-0.249,0.096-0.377,0.102c-19.984,1.271-34.247,14.455-44.584,33.354
						c-0.007,0.006-0.007,0.006-0.013,0.012c-27.058,49.469-27.218,138.037-32.709,154.171
						c-6.927,20.335-45.887,10.931-66.075,28.514C991.259,618.612,990.486,635.123,990.825,646.309z"/>
				</g>
			</g>
			<g>
				<g>
					<path style="fill:#798C9E;" d="M993.956,799.573l7.065-0.029c1.506,1.85,2.796,3.691,5.358,11.413
						c-12.263,1.954-26.736,4.768-39.483,4.176C970.776,807.719,988.17,804.032,993.956,799.573z"/>
					<path style="fill:#132635;" d="M936.993,593.917c43.123-19.735,137.664-29.628,137.664-29.628
						c46.891,8.186,40.308,47.451,36.081,67.232c-14.553,0.678-103.632,10.409-117.853,12.06
						c0.616,11.949,8.941,131.433,8.136,155.964c-1.828,0.556-5.233,0.524-7.065,0.029c-14.415-32.005-49.697-138.234-52.94-157.077
						C939.271,632.354,926.179,598.865,936.993,593.917z"/>
				</g>
				<g>
					<path style="fill:#FFB278;" d="M950.662,496.315c2.436,0.741,4.886,1.5,7.356,2.264c18.952,5.863,38.59,12.002,55.164,13.641
						c12.283,1.215,23.018-0.025,33.609-4.154c4.796-1.87,9.976-1.984,9.416-8.907c-0.04-0.529-0.223-1.132-0.522-1.786
						c-2.536-5.634-13.331-15.204-13.331-15.204c-14.608-9.585-34.173-7.197-49.197-3.573c-14.336,3.457-27.63,4.452-41.84,5.26
						L950.662,496.315z"/>
					<g>
						<path style="fill:#FFB278;" d="M929.618,484.336c1.144,0.523,2.134,0.995,3.005,1.464c1.127,0.598,2.066,1.188,2.909,1.866
							c1.324,1.059,2.403,2.313,3.575,4.121c0.077,0.106,0.149,0.217,0.22,0.328c0.526,0.827,1.079,1.542,1.655,2.151
							c4.799,5.1,11.262,3.267,17.002,0.212c1.135-0.596,2.231-1.246,3.286-1.892l-1.61-7.686
							c-6.203-1.428-11.587-4.104-18.141-4.709c-5.88-0.535-17.063-5.624-18.659-5.09c-0.142,0.327-0.241,0.651-0.302,0.975
							C921.846,479.92,926.87,483.091,929.618,484.336z"/>
						<g>
							<path style="fill:#FFB278;" d="M926.157,499.411c0.609-0.252,1.215-0.51,1.822-0.778c-0.516,0.319-1.073,0.632-1.654,0.935
								c0,0,0,0-0.004-0.005c-0.61,0.315-1.249,0.615-1.922,0.904c-7.667,3.316-18.253,5.124-16.134,7.706
								c1.399,3.688,12.52-0.381,22.64-3.967c0.375-0.128,0.746-0.262,1.117-0.396c0.736-0.253,1.461-0.508,2.175-0.753
								c-0.551,0.21-1.283,0.478-2.119,0.794c-0.342,0.122-0.703,0.258-1.077,0.402c-5.323,1.989-13.644,5.21-13.589,6.619
								c2.995,4.137,19.786-3.63,25.622-5.882c6.588-2.544,11.756-5.519,17.827-8.976l-2.878-1.537l-19.426-10.38
								c-1.443,0.208-2.768,0.554-4.028,0.98c-0.651,0.219-1.285,0.462-1.907,0.723c-2.641,1.092-5.143,2.488-8.133,3.743
								c-2.66,1.115-5.545,1.906-8.299,2.54c-7.52,1.731-14.17,2.321-13.195,5.398c1.545,1.438,4.857,1.347,8.417,0.68
								c-4.909,1.517-9.217,3.23-8.666,4.75c1,2.986,10.842,1.419,21.349-2.665C924.775,499.979,925.468,499.703,926.157,499.411z
								 M922.467,495.058c-0.363,0.11-0.767,0.222-1.201,0.346c0.426-0.146,0.814-0.283,1.168-0.403
								c0.984-0.334,1.642-0.557,1.821-0.571C923.973,494.59,923.343,494.802,922.467,495.058z"/>
						</g>
						<g>
							<path style="fill:#E5804E;" d="M919.203,495.962c0.031,0.031,0.064,0.063,0.095,0.094c1.446,1.538,3.081,2.938,4.798,4.19
								c0.105,0.069,0.206,0.148,0.304,0.221c2.115,1.504,4.342,2.765,6.506,3.738c0.033,0.021,0.067,0.032,0.097,0.047
								c1.106,0.496,2.195,0.905,3.238,1.24c-0.683-0.559-1.416-1.1-2.161-1.642c-0.024-0.009-0.042-0.023-0.056-0.041
								c-1.887-1.352-3.906-2.71-5.698-4.241c0,0,0,0-0.004-0.005c-0.055-0.051-0.109-0.101-0.164-0.152
								c-1.471-1.286-2.775-2.701-3.691-4.353c-0.014-0.017-0.026-0.035-0.033-0.057c-0.483-0.867-0.849-1.808-1.089-2.823
								c4.604,0.214,9.433-2.375,11.423-3.222c1.794,2.988,5.341,4.236,8.214,5.308c1.982,0.746,4.209,1.025,6.645,0.82
								c-1.493-0.359-5.514-1.547-8.52-3.298c-1.962-1.155-3.493-2.55-3.575-4.121c-0.041-0.664,0.186-1.359,0.746-2.079
								c-0.589-0.142-1.173-0.313-1.748-0.509c-4.648-1.571-8.974-4.897-11.972-9.003c-0.711,3.846,4.313,7.018,7.06,8.262
								c1.144,0.523,2.134,0.995,3.005,1.464c-2.641,1.092-5.143,2.488-8.133,3.743c-2.66,1.115-5.545,1.906-8.299,2.54
								C917.041,493.448,918.06,494.744,919.203,495.962z"/>
							<path style="fill:#E5804E;" d="M947.657,495.088c-0.011-0.002-0.021-0.005-0.031-0.008c0.011-0.001,0.021-0.001,0.031-0.002
								C947.783,495.096,947.783,495.099,947.657,495.088z"/>
						</g>
					</g>
					<path style="fill:#E5804E;" d="M958.018,498.579c18.952,5.863,38.59,12.002,55.164,13.641
						c12.283,1.215,23.018-0.025,33.609-4.154c4.796-1.87,9.976-1.984,9.416-8.907c-0.04-0.529-0.223-1.132-0.522-1.786
						l-11.663-7.918c-4.41,15.067-32.051,14.976-44.065,13.924C985.974,502.15,972.032,497.972,958.018,498.579z"/>
				</g>
				<g>
					<g>
						<g>
							<path style="fill:#A971AF;" d="M1021.459,476.143c6.516,16.76,32.1,27.135,33.695,27.928
								c1.799,0.897,18.07-26.049,31.019-50.923c10.405-19.992,18.671-38.647,15.57-40.43c-8.374-4.824-27.697-9.895-33.429-2.526
								c-6.464,8.303-28.039,39.602-46.642,65.653C1021.602,475.946,1021.53,476.041,1021.459,476.143z"/>
						</g>
						<path style="fill:#663F6B;" d="M1021.459,476.143c6.516,16.76,32.1,27.135,33.695,27.928
							c1.799,0.897,18.07-26.049,31.019-50.923l-2.536-23.501c-0.236,9.072-3.838,19.808-8.415,27.413
							c-5.544,9.215-8.93,17.189-17.574,24.004c-11.409,9-27.519,6.479-35.975-5.219
							C1021.602,475.946,1021.53,476.041,1021.459,476.143z"/>
					</g>
					<g>
						<path style="fill:#A971AF;" d="M1061.911,469.253c0.15,20.631,11.496,75.581,0.917,108.344
							c-0.397,1.236-0.83,2.455-1.298,3.62c-0.085,0.212-0.107,0.413-0.064,0.612c1.291,6.558,68.108,7.038,86.962,45.072
							c3.281-5.068,6.708-11.574,8.625-17.696c0.066-0.214,0.126-0.429,0.193-0.643c2.406-8.121,5.123-18.222,7.923-29.291
							c8.167-32.309,16.997-72.877,20.502-96.578c0.587-3.952,1.022-7.428,1.279-10.327c1.861-20.73,11.054-53.656,1.033-63.757
							c-7.708-7.777-33.884-13.38-41.36-15.282c-9.862-2.506-29.144-9.449-31.609-15.421l-8.206,14.428
							c-4.298,4.8-10.504,4.962-17.208,8.827c-7.18,4.142-16.909,2.789-21.756,10.398
							C1065.69,426.733,1061.791,453.283,1061.911,469.253z"/>
						<g>
							<path style="fill:#FFB278;" d="M1087.912,404.251c2.021,5.118,10.282,19.483,15.495,21.675
								c11.454-5.694,23.885-19.01,33.797-28.791c-3.21-6.795-1.18-30.618-2.657-36.605c-0.481-1.96-6.259,12.641-7.152,9.679
								c-1.547-5.134-3.095-10.791-2.472-13.492l-36.338,26.854c1.872,4.779-0.681,11.217-1.108,16.335
								C1087.343,401.518,1087.414,402.995,1087.912,404.251z"/>
							<path style="fill:#E5804E;" d="M1087.477,399.906c4.456,3.974,9.953,6.139,17.457,4.236
								c13.728-3.482,26.573-15.086,28.659-28.798c-1.548-5.134-9.294-15.925-8.67-18.626l-36.338,26.854
								C1090.457,388.35,1087.904,394.788,1087.477,399.906z"/>
						</g>
						<g>
							<path style="fill:#E0DAD5;" d="M1129.801,376.736c0.006,0.061,0.012,0.119,0.016,0.179c-0.22-0.103-0.435-0.195-0.64-0.264
								L1129.801,376.736z"/>
						</g>
					</g>
					<path style="fill:#663F6B;" d="M1061.465,581.828c1.291,6.558,68.108,7.038,86.962,45.072
						c3.281-5.068,6.708-11.574,8.625-17.696c0.066-0.214,0.126-0.429,0.193-0.643c1.733-6.917,3.027-12.974,3.802-15.709
						c1.276-4.504,2.666-9.029,4.121-13.582c8.167-32.309,16.997-72.877,20.502-96.578l-20.245-26.589
						c-3.857,21.408-27.559,119.133-45.684,133.572c-11.462-4.708-40.092-10.227-52.29-11.468c-1.561-0.156-1.674-4.346-3.191-4.589
						C1064.047,574.283,1062.717,578.184,1061.465,581.828z"/>
					<path style="fill:#A971AF;" d="M1201.964,536.229c-7.429-3.842-12.722-6.633-20.921-23.482
						c0.421-21.025-26.959-72.016-27.908-87.373c-0.312-5.044,10.464-21.75,16.848-23.564c11.853-3.368,20.135,8.819,22.512,12.742
						c10.73,17.696,18.567,52.323,23.678,72.395c4.517,17.734,4.819,29.862,6.66,45.845
						C1216.578,538.95,1208.359,539.537,1201.964,536.229z"/>
					<g>
						<path style="fill:#1E141A;" d="M1106.074,425.017c0.555-2.507,2.744,3.532,2.452,4.769c-0.337,1.431-4.939,4.763-5.996,6.096
							c-2.091-2.199-7.407-10.143-7.325-10.435L1106.074,425.017z"/>
						<polygon style="fill:#1E141A;" points="1103.711,431.055 1093.68,567.733 1083.844,574.605 1078.895,564.232 1101.912,430.81 
													"/>
					</g>
					<path style="fill:#663F6B;" d="M1089.165,390.308c0.571,7.21,6.74,25.725,14.574,27.41
						c6.781,0.301,30.159-21.985,31.616-30.372c0,0,4.385,2.821,7.295,4.807c-2.349,3.457-23.781,43.64-26.354,45.97
						c-4.67-3.55-8.911-8.263-13.197-12.268c-4.392,2.626-9.221,4.778-12.983,8.392
						C1081.916,423.126,1088.601,390.051,1089.165,390.308z"/>
					<g>
						<g>
							<path style="fill:#FFB278;" d="M1092.374,343.562c6.003-7.984-3.027-23.895-11.929-13.907
								c-3.305,3.705-4.354,13.146-1.183,17.146c3.369,4.249,9.177,1.949,11.797,2.584L1092.374,343.562z"/>
							<path style="fill:#E5804E;" d="M1084.091,331.789l0.081,0.277c1.34-0.698,3.866,0.533,4.47,2.081
								c0.753,1.931-0.278,2.57-1.574,3.709c-1.377,1.211-6.38,6.443-0.542,5.335
								C1094.708,341.641,1090.479,326.21,1084.091,331.789z"/>
						</g>
						<path style="fill:#30241B;" d="M1094.645,309.214c1.471-2.178,4.839-8.158,6.484-8.709l7.228,9.889
							c-0.36,1.273-2.929,2.652-4.179,3.721c-2.777,2.371-4.99,5.241-6.84,8.357c-2.823,4.753-4.789,9.839-7.328,14.715
							c-1.047-5.837-0.307-13.727,0.734-19.548C1091.308,314.488,1092.838,311.888,1094.645,309.214z"/>
						<path style="fill:#FFB278;" d="M1079.557,369.738c1.323-13.768,4.733-24.761,11.833-40.677
							c4.704-10.543,15-24.543,23.575-26.47c17.813-4.003,27.492,6.34,35.333,22.676c0,0-13.235,48.045-16.115,56.239
							c-5.946,16.927-32.693,12.191-38.417,10.369C1074.19,385.009,1078.834,377.289,1079.557,369.738z"/>
						<g>
							<g>
								<path style="fill:#FFFFFF;" d="M1116.528,352.622l3.332,1.178l0.053,0.017l6.551,2.327l0.075,0.023l3.146,1.118
									c1.267-1.562,1.086-4.628,0.009-7.074c-0.372-0.862-0.865-1.651-1.447-2.26c-0.493-0.536-1.058-0.933-1.664-1.139
									c-2.003-0.695-3.725-0.281-5.217,0.663c-0.254,0.165-0.51,0.339-0.755,0.53l-0.001,0.008
									C1118.998,349.278,1117.665,351.099,1116.528,352.622z"/>
								<path style="fill:#30241B;" d="M1120.61,348.005l-0.001,0.008c-0.375,1.865-0.729,3.965-0.749,5.787l0.053,0.017
									l6.551,2.327l0.075,0.023c1.278-1.608,2.292-3.851,3.155-5.956c-0.372-0.862-0.865-1.651-1.447-2.26
									c-0.493-0.536-1.058-0.933-1.664-1.139c-2.003-0.695-3.725-0.281-5.217,0.663
									C1121.111,347.641,1120.855,347.814,1120.61,348.005z"/>
								<path style="fill:#FFFFFF;" d="M1125.715,351.995c-0.685,0.944-0.999,1.875-0.703,2.078c0.295,0.204,1.087-0.395,1.77-1.339
									c0.685-0.943,1-1.873,0.705-2.077C1127.193,350.454,1126.398,351.053,1125.715,351.995z"/>
							</g>
						</g>
						<g>
							<g>
								<path style="fill:#FFFFFF;" d="M1088.577,341.724l2.485,0.861l0.038,0.012l4.882,1.704l0.057,0.016l2.343,0.818
									c1.271-1.541,1.625-4.381,1.156-6.579c-0.159-0.776-0.427-1.477-0.796-2.002c-0.309-0.463-0.698-0.793-1.151-0.943
									c-1.496-0.505-2.945,0.001-4.297,0.983c-0.23,0.172-0.464,0.352-0.693,0.546l-0.002,0.008
									C1091.102,338.438,1089.738,340.226,1088.577,341.724z"/>
								<path style="fill:#30241B;" d="M1092.603,337.141l-0.002,0.008c-0.604,1.761-1.228,3.739-1.539,5.436l0.038,0.012
									l4.882,1.704l0.057,0.016c1.286-1.586,2.463-3.743,3.499-5.76c-0.159-0.776-0.427-1.477-0.796-2.002
									c-0.309-0.463-0.698-0.793-1.151-0.943c-1.496-0.505-2.945,0.001-4.297,0.983
									C1093.066,336.768,1092.831,336.947,1092.603,337.141z"/>
								<path style="fill:#FFFFFF;" d="M1096.055,340.495c-0.702,0.925-1.108,1.813-0.903,1.982c0.204,0.169,0.937-0.444,1.64-1.369
									c0.702-0.925,1.106-1.812,0.902-1.982C1097.491,338.956,1096.757,339.569,1096.055,340.495z"/>
							</g>
						</g>
						<path style="fill:#30241B;" d="M1136.644,346.92l-1.917,3.311c-0.901,0.271-13.849-5.351-16.752-6.478
							c-0.273-1.715,1.095-3.87,1.559-5.374C1125.222,341.355,1130.993,343.65,1136.644,346.92z"/>
						<path style="fill:#30241B;" d="M1090.558,327.183l-0.413,3.941c0.43,0.848,11.203,5.599,13.555,6.768
							c1.001-1.147,1.193-3.799,1.633-5.303C1100.354,330.899,1095.655,328.617,1090.558,327.183z"/>
						<path style="fill:#E5804E;" d="M1104.062,349.372c-0.224,0.421-0.431,0.849-0.633,1.28c-0.204,0.425-0.435,0.836-0.629,1.261
							c-0.214,0.415-0.461,0.815-0.667,1.233l-0.726,1.189l-0.794,1.14c-0.308,0.351-0.58,0.725-0.878,1.082l-0.968,1.016
							l-1.043,0.963l-0.319,0.294l0.306,0.37c0.302,0.365,0.608,0.73,0.923,1.088c0.145,0.185,0.342,0.346,0.52,0.515l0.546,0.5
							c0.352,0.342,0.789,0.611,1.186,0.91c0.4,0.295,0.841,0.525,1.258,0.789c0.208,0.135,0.428,0.234,0.643,0.35l0.646,0.335
							c0.429,0.218,0.856,0.424,1.289,0.627c0.426,0.208,0.85,0.416,1.282,0.618c0.417,0.221,0.843,0.434,1.274,0.65
							c-0.371-0.289-0.745-0.583-1.132-0.868c-0.39-0.272-0.79-0.537-1.19-0.802c-0.797-0.521-1.604-1.019-2.354-1.54
							c-0.363-0.271-0.756-0.514-1.087-0.803l-0.501-0.425c-0.172-0.137-0.341-0.274-0.483-0.432l-0.446-0.453
							c-0.146-0.152-0.309-0.294-0.424-0.463c-0.249-0.327-0.508-0.647-0.769-0.967l-0.014,0.665l1.13-0.984
							c0.348-0.352,0.664-0.727,0.996-1.089c0.294-0.388,0.592-0.774,0.865-1.175l0.716-1.259c0.195-0.44,0.387-0.884,0.566-1.33
							c0.16-0.455,0.298-0.92,0.434-1.384c0.117-0.472,0.209-0.956,0.307-1.431C1103.957,350.356,1104.019,349.868,1104.062,349.372
							z"/>
						<path style="fill:#E5804E;" d="M1099.37,378.559c0,0,0.016-0.126,0.022-0.336c0.007-0.194-0.056-0.55-0.21-0.882
							c-0.142-0.354-0.397-0.72-0.727-1.045c-0.328-0.334-0.742-0.599-1.172-0.818c-0.872-0.418-1.844-0.543-2.558-0.423
							c-0.356,0.039-0.648,0.14-0.844,0.223c-0.198,0.088-0.302,0.153-0.302,0.153s0.111,0.068,0.293,0.161
							c0.183,0.094,0.436,0.222,0.724,0.36c0.579,0.29,1.304,0.614,2.002,0.951c0.173,0.084,0.346,0.168,0.516,0.251
							c0.169,0.085,0.333,0.167,0.491,0.254c0.163,0.08,0.307,0.171,0.459,0.25c0.133,0.091,0.292,0.158,0.411,0.247
							c0.259,0.173,0.463,0.297,0.63,0.444C1099.265,378.486,1099.37,378.559,1099.37,378.559z"/>
						<path style="fill:#30241B;" d="M1094.028,290.387c0.763,10.423,4.495,17.241,12.635,25.094
							c8.458,8.159,25.714,6.016,34.752,11.274c-0.432,2.594-6.637,5.088-5.519,10.334c0.995,4.657,4.953,8.833,2.926,12.201
							c-2.849,4.745-2.748,12.288-2.29,16.423l11.739-5.627c5.05-1.806,15.406-12.948,17.81-19.71
							c4.244-11.929-1.031-14.662-7.384-21.451c0.02-0.052,0.043-0.111,0.056-0.168c4.028-11.946-12.898-30.542-21.932-34.757
							c-10.076-4.698-25.395-1.634-37.186,3.589C1097.651,288.466,1095.766,289.414,1094.028,290.387z"/>
						<g>
							<path style="fill:#FFB278;" d="M1137.9,362.806c3.386-9.399,21.642-10.571,18.171,2.351
								c-1.287,4.794-8.607,10.849-13.69,10.39c-5.401-0.488-6.661-6.606-8.631-8.45L1137.9,362.806z"/>
							<path style="fill:#E5804E;" d="M1152.288,363.279l-0.279,0.083c-0.15-1.503-2.564-2.94-4.189-2.596
								c-2.028,0.43-1.998,1.642-2.24,3.349c-0.258,1.817-1.889,8.869-4.165,3.38C1138.227,359.8,1153.452,354.877,1152.288,363.279
								z"/>
						</g>
						<path style="fill:#E5804E;" d="M1114.456,370.623c0,0-0.094,0.082-0.27,0.237c-0.183,0.154-0.449,0.344-0.822,0.555
							c-0.74,0.429-1.864,0.906-3.27,1.267c-0.7,0.191-1.475,0.326-2.289,0.453c-0.818,0.12-1.686,0.16-2.578,0.188
							c-0.894,0.008-1.809-0.078-2.727-0.2c-0.914-0.148-1.823-0.381-2.692-0.706c-0.867-0.334-1.695-0.75-2.447-1.264
							c-0.72-0.548-1.442-1.093-1.996-1.774c-0.584-0.65-1.063-1.358-1.488-2.054c-0.202-0.354-0.367-0.717-0.554-1.057
							c-0.171-0.347-0.305-0.7-0.452-1.031c-0.157-0.328-0.239-0.668-0.358-0.98c-0.105-0.315-0.231-0.61-0.297-0.901
							c-0.143-0.578-0.322-1.078-0.403-1.502c-0.185-0.845-0.306-1.334-0.306-1.334s-0.012,0.496-0.004,1.375
							c-0.004,0.442,0.064,0.969,0.121,1.583c0.077,0.609,0.19,1.3,0.385,2.04c0.108,0.367,0.202,0.757,0.337,1.15
							c0.15,0.387,0.303,0.791,0.483,1.197c0.389,0.8,0.839,1.641,1.468,2.404c0.592,0.79,1.349,1.498,2.181,2.126
							c0.852,0.607,1.792,1.105,2.772,1.498c0.996,0.352,2.02,0.592,3.037,0.736c1.019,0.13,2.027,0.129,2.993,0.078
							c1.93-0.141,3.686-0.585,5.1-1.171c0.712-0.276,1.335-0.609,1.869-0.925c0.53-0.323,0.969-0.643,1.299-0.945
							c0.337-0.283,0.565-0.572,0.703-0.752C1114.385,370.724,1114.456,370.623,1114.456,370.623z"/>
						<path style="fill:#4C3526;" d="M1099.634,287.589c0.119,0.513,0.23,1.004,0.339,1.466
							c2.353,10.455,9.484,19.407,18.716,24.375c9.744,5.246,24.196,12.081,35.579,7.878c1.663-0.619,3.16-1.48,4.485-2.552
							c4.028-11.946-12.898-30.542-21.932-34.757C1126.743,279.302,1111.424,282.366,1099.634,287.589z"/>
						<g>
							<path style="fill:#30241B;" d="M1109.933,350.678c2.818-5.6,9.666-7.865,15.267-5.047c5.6,2.818,7.865,9.666,5.047,15.267
								c-2.818,5.601-9.666,7.866-15.268,5.048C1109.38,363.128,1107.116,356.279,1109.933,350.678z M1111.031,351.231
								c-2.512,4.995-0.493,11.103,4.502,13.616c4.995,2.513,11.103,0.494,13.616-4.501c2.513-4.995,0.494-11.104-4.502-13.617
								C1119.652,344.217,1113.545,346.236,1111.031,351.231z"/>
							<path style="fill:#30241B;" d="M1082.204,338.105c2.818-5.601,9.666-7.865,15.266-5.048
								c5.601,2.818,7.865,9.666,5.048,15.267c-2.818,5.6-9.667,7.865-15.267,5.047
								C1081.649,350.553,1079.386,343.705,1082.204,338.105z M1083.302,338.657c-2.513,4.996-0.493,11.104,4.501,13.616
								c4.996,2.513,11.104,0.494,13.617-4.501c2.514-4.995,0.493-11.104-4.502-13.617
								C1091.923,331.642,1085.815,333.662,1083.302,338.657z"/>
							<path style="fill:#30241B;" d="M1102.906,346.744c1.219-0.97,2.511-1.278,3.739-0.89c1.625,0.513,2.991,2.176,3.662,4.452
								l1.179-0.349c-0.788-2.669-2.458-4.641-4.471-5.275c-1.14-0.36-2.911-0.462-4.876,1.1L1102.906,346.744z"/>
						</g>
					</g>
					<path style="fill:#663F6B;" d="M1189.519,494.96c9.238-5.536,18.278,1.072,25.227,7.716c21.36,20.419,5.38,36.398,5.38,36.398
						c-3.515,2.596-10.016,4.029-14.75,1.844C1181.407,529.855,1172.564,505.12,1189.519,494.96z"/>
					<g>
						<path style="fill:#FFB278;" d="M1197.251,520.925c0,0,0.357,0.756,0.971,1.967c2.366,4.659,8.543,16.109,12.875,17.664
							c7.455,2.686,9.416-2.698,13.189-7.148c8.334-9.833,13.521-20.681,16.552-33.907c4.357-19.034,4.296-43.274,4.597-66.18
							c0.019-1.346,0.037-2.692,0.062-4.026l-14.001-3.091c-5.949,14.621-11.776,28.228-20.693,42.174
							C1201.455,482.998,1191.855,502.745,1197.251,520.925z"/>
						<g>
							<g>
								<path style="fill:#FFB278;" d="M1229.028,438.878c0.298-0.319,1.525,6.212,1.747,5.883l9.072-9.785
									c4.938-1.031,7.823-4.476,11.713-7.369c3.773-2.803,8.499-4.009,12.436-6.731c6.554-4.538,19.096-20.428,12.909-23.14
									c-2.251,0.182-8.129,15.809-6.552,10.606c1.242-4.097,13.053-20.766,6.506-24.498c-2.262-0.269-5.289,13.542-10.002,19.415
									c-0.183,0.229-0.367,0.443-0.559,0.65c0.085-0.231,0.226-0.541,0.399-0.927c2.442-5.38,12.578-24.697,6.37-26.081
									c-1.719,0.265-3.567,4.427-5.593,9.308c1.696-4.719,2.276-8.771-0.771-8.565c-2.111,0.144-5.857,8.012-8.417,12.796
									c-0.802,1.501-1.487,2.701-1.968,3.257c-2.708,3.126-5.693,5.997-8.954,8.559c-0.641,0.511-1.298,1.009-1.972,1.493
									c-0.528,0.386-1.073,0.764-1.616,1.134C1239.379,407.856,1232.03,415.827,1229.028,438.878z M1260.894,399.743
									c0.131-0.204,0.319-0.493,0.538-0.861c0.351-0.593,0.789-1.372,1.286-2.29c0.73-1.354,1.563-2.985,2.382-4.728
									c-0.746,1.716-1.517,3.374-2.307,4.844c-0.436,0.802-0.869,1.543-1.32,2.21
									C1261.286,399.208,1261.09,399.483,1260.894,399.743z"/>
							</g>
							<path style="fill:#FFB278;" d="M1234.279,421.553l12.536-9.059c0.837-0.772,1.41-1.951,1.711-3.273
								c0.536-2.353,0.185-5.167-1.163-6.966c-0.359-0.484-0.798-0.896-1.305-1.206c0.448-3.229,6.109-13.182,3.401-16.879
								c-0.352-0.492-0.865-0.877-1.55-1.117c-2.411,6.441-8.554,10.639-10.912,16.708c-1.122,2.899-2.362,11.09-2.88,15.575
								c-0.085,0.744-0.155,1.388-0.194,1.888C1233.629,420.626,1234.871,418.994,1234.279,421.553z"/>
							<g>
								<path style="fill:#E5804E;" d="M1243.362,401.611c0.74,0.666,1.422,1.388,2.03,2.137c1.356,1.664,2.404,3.511,3.135,5.474
									c1.415,3.764,1.685,7.94,0.771,11.973c2.796-4.345,2.206-12.378,0.139-16.842c3.686-2.104,5.236-5.3,8.139-8.309
									c1.431,0.634,2.709,1.624,3.857,2.839c0.016,0.007,0.032,0.021,0.04,0.036c3.87,4.096,7.153,7.572,5.384,4.341
									c-0.051-0.088-0.101-0.183-0.16-0.277c-0.69-1.25-1.453-2.464-2.221-3.634c-0.405-0.618-0.996-1.563-1.683-2.64
									c-0.032-0.036-0.057-0.08-0.075-0.116c-1.299-2.014-2.941-4.475-4.433-6.153c-0.802,1.501-1.487,2.701-1.968,3.257
									c-2.708,3.126-5.693,5.997-8.954,8.559c-0.359-0.484-0.798-0.896-1.305-1.206c0.448-3.229,6.109-13.182,3.401-16.879
									C1249.076,390.208,1244.952,398.075,1243.362,401.611z"/>
							</g>
						</g>
						<path style="fill:#E5804E;" d="M1198.222,522.891c2.366,4.659,8.543,16.109,12.875,17.664
							c7.455,2.686,9.416-2.698,13.189-7.148c8.334-9.833,13.521-20.681,16.552-33.907c4.357-19.034,4.296-43.274,4.597-66.18
							c-5.543,6.035-4.941,19.722-5.642,26.471c-1.155,11.204-1.844,49.782-20.3,70.107c-0.723,0.796-3.22-2.452-4.929-2.526
							c-1.69-0.074-3.608,2.126-6.146,1.899C1203.962,528.878,1200.73,526.358,1198.222,522.891z"/>
					</g>
				</g>
				<g>
					<path style="fill:#203F5E;" d="M1011.536,539.921c34.531,10.36,79.701,28.316,99.784,33.521
						c12.045,3.121,47.654,20.105,46.737,34.473c-0.68,10.656-13.828,27.779-22.026,33.517
						c-19.153,13.407-28.359,14.901-50.755,11.491c-15.114-2.301-82.632-52.563-83.589-59.16L1011.536,539.921z"/>
					<g>
						<path style="fill:#798C9E;" d="M870.097,710.55l4.943,4.092c-0.136,2.296-1.776,9.573-4.943,16.99
							c-9.8-5.641-30.465-16.843-38.972-24.719C838.584,703.483,863.205,710.604,870.097,710.55z"/>
						<path style="fill:#203F5E;" d="M962.237,519.549c52.22,12.283,149.084,53.892,149.084,53.892
							c-5.226,19.159-48.038,43.356-63.664,56.076c-19.792-9.577-60.537-40.872-71.508-47.885
							c-7.231,9.529-85.771,115.722-101.108,133.009c-1.631-0.638-3.984-2.645-4.943-4.092
							c10.47-32.956,53.98-135.027,63.799-151.376C939.182,550.375,951.531,517.031,962.237,519.549z"/>
					</g>
				</g>
			</g>
			<path style="fill:#E54A6E;" d="M966.895,652.694v14.046c0,3.524,2.86,6.385,6.385,6.385h210.694c3.524,0,6.385-2.86,6.385-6.385
				v-14.046c0-3.531-2.86-6.385-6.385-6.385H973.28C969.755,646.309,966.895,649.163,966.895,652.694z"/>
			<path style="fill:#E54A6E;" d="M1147.645,672.314c-0.083,0.281-0.185,0.536-0.268,0.811h71.406
				c16.217-7.214,29.644-18.388,36.393-35.907c2.765-7.189,3.939-15.023,4.054-23.1c0.261-18.33-4.923-37.906-9.322-54.021
				c-4.265-15.636-8.524-30.002-12.788-43.173c-0.128,0.607-0.268,1.207-0.409,1.807c-1.449,6.136-3.537,12.093-6.959,17.743
				c-2.484,4.105-5.287,7.821-8.753,10.943c-10.848,12.559-44.686,6.614-59.907,13.459c-26.247,11.799-11.818,46.238-12.067,71.655
				c-0.044,4.201,0.16,8.932,0.313,13.778C1149.624,655.446,1149.72,665.01,1147.645,672.314z"/>
		</g>
		<g>
			<polygon style="fill:#898F93;" points="951.947,818.886 984.09,530.648 1007.13,530.697 957.337,818.886 			"/>
			<polygon style="fill:#626B72;" points="750.339,818.886 787.771,529.649 807.197,530.697 757.403,818.886 			"/>
			<polygon style="fill:#626B72;" points="265.871,818.886 216.079,530.697 237.121,529.649 271.272,818.886 			"/>
			<polygon style="fill:#898F93;" points="465.739,818.886 415.947,530.697 438.228,531.649 472.143,818.886 			"/>
			<g>
				<g>
					<rect x="176.531" y="520.965" style="fill:#898F93;" width="866.128" height="17.586"/>
					<rect x="732.022" y="520.965" style="fill:#626B72;" width="310.638" height="17.586"/>
				</g>
				<rect x="151.564" y="516.901" style="fill:#CED9DD;" width="916.059" height="8.121"/>
			</g>
		</g>
		<g>
			<g>
				<g>
					<polygon style="fill:#3C4042;" points="194.16,603.254 190.224,790.253 205.788,790.253 201.108,603.254 					"/>
					<g>
						<g>
							<path style="fill:#3C4042;" d="M197.051,773.08c-2.862,0.954-76.327,30.531-76.327,30.531v9.541h76.327V773.08z"/>
							<path style="fill:#3C4042;" d="M198.005,773.08c2.863,0.954,76.327,30.531,76.327,30.531v9.541h-76.327V773.08z"/>
						</g>
						<path style="fill:#828A8E;" d="M197.051,773.08c1.539,0.954,41.025,30.531,41.025,30.531v9.541h-41.025V773.08z"/>
					</g>
				</g>
				<g>
					<path style="fill:#892743;" d="M333.589,646.309c-1.596,12.131-6.755,22.206-19.103,26.816h-31.815
						c-2.445-8.76-3.939-18.713-9.22-26.816c-0.287-0.44-0.58-0.881-0.893-1.309c-7.751-10.733-20.852-16.792-30.347-25.411
						c-13.375-12.137-19.983-27.69-23.163-46.499c-5.446-32.198,3.371-66.465-2.388-97.775c0,0-10.764-57.264-3.307-49.194
						c0.428,0.46,0.855,0.951,1.277,1.475c0.006,0.006,0.006,0.006,0.012,0.012c17.801,21.906,32.549,94.487,40.587,108.942
						c16.709,30.027,69.069,17.405,74.414,58.937C331.622,610.861,335.676,630.367,333.589,646.309z"/>
					<path style="fill:#AA2D4B;" d="M55.001,614.118c0.115,8.077,1.289,15.911,4.054,23.1c6.749,17.519,20.175,28.693,36.393,35.907
						h218.885c5.165-3.409,8.632-9.666,8.632-16.823c0-1.903,0.313-5.523,0.441-9.992c0.338-11.186-0.434-27.697-9.98-36.016
						c-20.188-17.583-59.148-8.179-66.075-28.514c-5.491-16.134-5.65-104.702-32.709-154.171c-0.006-0.006-0.006-0.006-0.013-0.012
						c-10.336-18.899-24.6-32.083-44.584-33.354c-0.127-0.006-0.256-0.077-0.377-0.102c-27.071-6.506-80.367-8.021-92.15,124.59
						c-0.254,2.872-1.801,5.523-2.701,8.364c-3.53,11.141-7.036,23.055-10.496,35.754C60.148,578.159,55.251,596.592,55.001,614.118
						z"/>
				</g>
			</g>
			<g>
				<path style="fill:#E54A6E;" d="M323.393,652.694v14.046c0,3.524-2.554,6.385-5.7,6.385H129.572c-3.147,0-5.701-2.86-5.701-6.385
					v-14.046c0-3.531,2.554-6.385,5.701-6.385h188.121C320.839,646.309,323.393,649.163,323.393,652.694z"/>
				<g>
					<g>
						<path style="fill:#2D1E26;" d="M256.678,799.572l-6.63-0.029c-1.413,1.85-2.625,3.691-5.029,11.413
							c11.51,1.955,15.97,2.571,27.934,1.979C269.31,805.521,262.109,804.032,256.678,799.572z"/>
						<path style="fill:#FFB278;" d="M147.094,650.018c6.436,0.319,28.226-0.638,50.86-1.577
							c14.212-0.581,28.762-1.156,40.051-1.392c8.874-0.185,15.737-0.166,18.847,0.217c-0.581,11.953-7.559,127.744-6.806,152.274
							c1.717,0.563,4.916,0.53,6.634,0.032c6.87-16.249,18.79-51.639,29.254-84.999c4.303-13.721,8.365-27.097,11.723-38.666
							c4.565-15.706,7.84-28.073,8.708-33.411c1.635-10.145,13.925-43.633,3.773-48.581c-17.398-8.485-41.654-14.525-63.648-18.656
							c-29.177-5.478-54.391-7.598-54.391-7.598c-17.175,3.192-28.399,13.421-35.474,25.89
							C145.574,613.025,144.673,637.958,147.094,650.018z"/>
					</g>
					<g>
						<path style="fill:#5E2F4B;" d="M147.094,650.974c6.436,0.329,28.226-0.658,50.86-1.626
							c14.212-0.599,28.762-1.192,40.051-1.436c7.987-20.028,26.879-58.696,38.984-60.145l-24.344,1.008l-96.019,3.97
							C145.574,612.827,144.673,638.537,147.094,650.974z"/>
					</g>
					<path style="fill:#E5804E;" d="M269.455,620.592c2.758,13.842,8.071,26.011,12.661,39.055
						c5.497,15.636,6.525,31.029,6.691,47.266c4.303-13.721,8.364-27.097,11.722-38.666c-2.605-7.132-6.416-14.257-9.072-20.144
						c-10.26-22.774-23.815-49.794-24.658-73.736v-1.915C261.877,583.88,266.965,608.104,269.455,620.592z"/>
					<g>
						<g>
							<g>
								<path style="fill:#FFFFFF;" d="M99.688,599.548l112.153,10.886c-0.849-15.349-10.191-26.93-14.557-40.281
									c-2.157-6.602-3.103-13.638-1.206-21.772c2.962-12.68,9.424-41.903,14.742-53.599c2.528-5.561,5.05-10.081,6.997-14.474
									c0.639-1.43-3.843-7.374-3.346-8.811c2.695-7.796-13.58-48.862-17.386-55.106c-7.603-12.469-23.935-10.688-38.869-10.669
									c-20.834,0.019-28.336-4.897-45.096,10.995c-12.769,12.105-8.881,30.959-3.581,45.561
									c6.135,16.894,8.026,40.089,7.617,57.653c-0.019,1.137-0.057,2.247-0.102,3.333c-0.542,13.172-3.747,26.413-7.297,39.227
									c-1.048,3.786-2.912,8.409-4.776,13.21C101.622,584.365,98.264,593.61,99.688,599.548z"/>
								<g>
									<g>
										<path style="fill:#FFB278;" d="M134.665,406.157c2.955,3.397,24.055,14.071,35.88,17.448
											c1.877-1.602,3.872-2.787,5.622-2.854c1.287,0.128,2.586,0.409,3.866,0.824c1.2-4.355-3.719-10.774-4.436-14.272
											c-0.174-0.837-0.214-1.735-0.167-2.68c0.121-2.352,0.831-4.972,1.661-7.558c0.905-2.828,1.97-5.595,2.594-7.907
											c0.529-1.956,1.259-3.926,1.534-5.943l-38.312-23.35c2.379,1.635,3.712,8.476,4.416,14.787
											c0.449,4.067,0.636,7.933,0.677,10.01c0.113,5.24-2.942,10.452-6.547,14.734
											C139.188,402.09,136.709,404.415,134.665,406.157z"/>
										<path style="fill:#E5804E;" d="M142.909,359.863c2.376,1.637,3.706,8.477,4.413,14.787
											c2.602,3.444,5.488,6.614,8.637,9.92c4.376,4.602,13.791,10.531,21.134,12.493c0.905-2.824,1.969-5.592,2.59-7.901
											c0.529-1.962,1.262-3.93,1.537-5.945L142.909,359.863z"/>
									</g>
									<g>
										<path style="fill:#4F2D34;" d="M110.815,290.742c6.743-7.583,16.034-6.877,23.767-1.843
											c4.15,2.703,8.514,5.036,12.955,7.085c2.849,1.315,9.775,5.539,12.744,3.575l-21.028,22.279
											c-0.907,0.972-1.832,1.676-2.968,2.401c-9.183,5.854-21.86,0.298-27.038-8.324
											C104.365,307.786,104.359,298.007,110.815,290.742z"/>
										<path style="fill:#663D43;" d="M140.214,306.619l9.964,13.455l0.951,1.279c1.663-0.005,3.441,0.233,5.281,0.658
											c7.769,1.791,16.646,6.87,22.583,10.712c2.711,1.756,5.895,4.475,8.92,7.069c5.69,4.854,10.85,9.258,11.426,5.962
											c4.302-24.542-3.846-39.28-17.272-46.981C157.147,284.484,143.945,305.316,140.214,306.619z"/>
										<path style="fill:#FFB278;" d="M140.223,332.283c3.217-2.675,5.885-6.26,8.428-9.833c0.538-0.753,1.041-1.55,1.526-2.376
											c2.087-3.547,3.792-7.597,5.936-11.042c6.299-2.332,13.48-2.964,19.301-1.758c6.792,1.412,12.304,9.21,16.928,19.919
											c4.003,9.262,5.982,15.691,8.91,27.051c2.388,9.285-4.977,27.312-9.637,36.168c-4.803,9.128-27.908-1.928-35.379-6.774
											c-7.451-4.833-11.346-9.765-13.587-17.345c-0.213-0.747-0.421-1.518-0.609-2.314
											C138.763,350.167,139.316,340.416,140.223,332.283z"/>
										<g>
											<path style="fill:#5B2500;" d="M159.428,342.635c0.499,0.589,0.584,1.573,0.156,2.214
												c1.459-0.471,2.596-1.961,1.948-3.204c0.383,0.679,0.773,1.445,0.377,2.14c1.182-0.031,2.313-1.133,2.495-1.87
												c-0.003,2.2-1.518,2.432-2.666,3.813l-3.812,2.932C157.761,346.686,160.482,344.614,159.428,342.635z"/>
											<g>
												<path style="fill:#E5804E;" d="M165.175,346.316c3.061,2.512,5.171,7.463,5.171,7.463
													c0.433,0.655,0.566,0.534,0.747,1.274c-5.577,0.251-9.87,1.47-14.689,3.731
													C155.36,354.541,158.031,340.45,165.175,346.316z"/>
												<g>
													<path style="fill:#FFFFFF;" d="M157.584,356.502c0.562-0.455,1.495-0.854,2.6-1.195
														c2.909-0.896,7.047-1.386,9.087-1.409c0.541-0.008,0.93,0.011,1.122,0.069c-0.077-0.299-0.323-0.844-0.691-1.519
														v-0.007c-1.51-2.804-5.011-7.859-6.957-7.174c-1.915,0.674-3.141,2.653-3.953,5.163
														C158.201,352.264,157.831,354.396,157.584,356.502z"/>
												</g>
												<path style="fill:#121619;" d="M158.792,350.43c0.203,1.858,0.695,3.533,1.392,4.877
													c2.909-0.896,7.047-1.386,9.087-1.409c0.166-0.462,0.31-0.943,0.431-1.45v-0.007c-1.51-2.804-5.011-7.859-6.957-7.174
													C160.83,345.941,159.604,347.92,158.792,350.43z"/>
												<path style="fill:#FFFFFF;" d="M161.558,350.873c0.001,0.717,0.344,1.298,0.766,1.298
													c0.423-0.001,0.763-0.584,0.762-1.302c-0.001-0.718-0.345-1.299-0.767-1.298
													C161.898,349.572,161.557,350.155,161.558,350.873z"/>
											</g>
										</g>
										<g>
											<path style="fill:#5B2500;" d="M187.36,337.983c0.424,0.589,0.496,1.572,0.135,2.214c1.241-0.47,2.208-1.96,1.656-3.204
												c0.326,0.68,0.658,1.446,0.322,2.141c1.005-0.032,1.968-1.134,2.122-1.87c-0.001,2.199-1.291,2.431-2.268,3.812
												l-3.242,2.932C185.943,342.035,188.256,339.963,187.36,337.983z"/>
											<g>
												<path style="fill:#E5804E;" d="M192.501,341.663c1.955,2.637,2.846,7.368,2.846,7.368
													c0.236,0.643,0.353,0.55,0.384,1.241c-4.25-0.439-7.668,0.15-11.63,1.621
													C183.914,347.93,187.936,335.505,192.501,341.663z"/>
												<g>
													<path style="fill:#FFFFFF;" d="M185.315,349.97c0.493-0.345,1.252-0.595,2.136-0.77
														c2.324-0.464,5.523-0.413,7.067-0.191c0.41,0.058,0.702,0.122,0.839,0.197c-0.016-0.28-0.123-0.802-0.307-1.457
														l0.001-0.006c-0.743-2.716-2.669-7.707-4.237-7.319c-1.544,0.381-2.751,2.024-3.722,4.196
														C186.385,346.21,185.802,348.095,185.315,349.97z"/>
												</g>
												<path style="fill:#121619;" d="M187.092,344.621c-0.11,1.706,0.022,3.28,0.359,4.579
													c2.324-0.464,5.523-0.413,7.067-0.191c0.192-0.397,0.369-0.816,0.533-1.26l0.001-0.006
													c-0.743-2.716-2.669-7.707-4.237-7.319C189.27,340.806,188.063,342.449,187.092,344.621z"/>
												<path style="fill:#FFFFFF;" d="M189.119,345.353c-0.101,0.649,0.076,1.216,0.395,1.266
													c0.318,0.049,0.659-0.436,0.76-1.086c0.102-0.649-0.076-1.216-0.395-1.266
													C189.562,344.216,189.22,344.703,189.119,345.353z"/>
											</g>
										</g>
										<path style="fill:#121619;" d="M181.592,329.648c2.187-5.157,8.31-2.93,10.309,1.5c-1.358-2.157-3.369-1.858-5.28-0.947
											C185.745,330.619,180.611,332.191,181.592,329.648z"/>
										<path style="fill:#121619;" d="M163.426,335.49c-4.003-4.597-11.694-1.124-13.424,3.642
											c1.356-2.401,4.099-2.532,6.837-2.041C158.097,337.317,165.268,337.779,163.426,335.49z"/>
										<path style="fill:#E5804E;" d="M184.531,363.017c-2.536-2.895-4.453-7.475-4.445-9.879c0,0,4.416,8.018,6.987,9.792
											c-1.94,1.487-3.581,3.82-6.302,2.396C182.104,365.552,184.105,364.561,184.531,363.017z"/>
										<path style="fill:#663D43;" d="M118.096,335.124c0.591,3.144,1.563,6.17,2.866,8.889
											c5.539,11.569,16.551,18.726,26.816,25.827c-1.632-11.876-7.77-20.408-3.793-33.274c2.19-7.083,6.607-8.862,11.531-13.609
											c0.309-0.296,0.604-0.615,0.895-0.947c1.601-1.802,2.909-4.051,3.498-6.351c0.49-1.877,2.838-8.652,2.949-8.785
											c0,0-1.096-1.097-3.065-2.445c-0.115-0.075-0.229-0.156-0.344-0.238c-1.77-1.182-4.176-2.522-7.062-3.472
											c-6.892-2.284-16.543-2.41-26.954,6.849c-4.6,4.089-7.064,10.001-7.793,16.293
											C117.217,327.582,117.394,331.43,118.096,335.124z"/>
										<path style="fill:#4F2D34;" d="M156.113,309.033c6.299-2.332,13.48-2.964,19.301-1.758
											c6.792,1.412,12.304,9.21,16.928,19.919l0.303-0.388c2.225-3.038-4.039-14.235-6.483-17.519
											c-3.69-4.95-9.899-7.395-15.786-8.052c-4.686-0.528-7.998,0.837-10.585,3.195
											C158.382,305.715,157.19,307.295,156.113,309.033z"/>
										<path style="fill:#4F2D34;" d="M118.096,335.124c0.591,3.144,1.563,6.17,2.866,8.889
											c5.539,11.569,16.551,18.726,26.816,25.827c1.708-19.968-7.77-20.408-3.793-33.274c2.19-7.083,6.607-8.862,11.531-13.609
											c0.309-0.296,0.604-0.615,0.895-0.947c1.601-1.802,2.909-4.051,3.498-6.351c0.49-1.877,2.838-8.652,2.949-8.785
											c0,0-1.096-1.097-3.065-2.445c-0.115-0.075-0.229-0.156-0.344-0.238c-5.093,4.57-5.542,12.677-10.633,17.692
											c-6.353,6.24-17.773,8.413-26.019,4.902c-1.747-0.747-3.508-1.73-5.156-2.923
											C117.217,327.582,117.394,331.43,118.096,335.124z"/>
										<g>
											<path style="fill:#FFB278;" d="M130.661,366.259c-0.288-4.055,2.949-7.933,7.017-6.943
												c11.923,2.904,9.94,13.644,9.94,13.644c-0.089,4.095-6.357,4.655-9.243,3.473
												C134.716,374.931,130.938,370.175,130.661,366.259z"/>
											<path style="fill:#E5804E;" d="M139.998,363.175c1.463,1.731,4.175,5.689,4.175,5.689
												c0.821,3.173-5.896,3.223-6.675-0.567c-0.348-1.695,1.308-3.362-0.926-4.29c-1.538-0.639-2.861,0.59-3.427,1.932
												C132.353,362.318,137.7,360.453,139.998,363.175z"/>
										</g>
										<g>
											<g>
												<path style="fill:#E5804E;" d="M189.079,372.082c-0.072,0.092-0.155,0.173-0.232,0.259
													c0.014-0.081,0.027-0.164,0.036-0.242L189.079,372.082z"/>
												<path style="fill:#E5804E;" d="M178.243,372.69c1.495,2.092,3.141,5.683,6.07,5.536c1.272-0.061,2.26-0.813,2.994-1.842
													c0.854-1.199,1.357-2.769,1.543-4.044c-0.637,0.725-1.42,1.28-2.282,1.671
													C183.848,375.233,180.35,374.768,178.243,372.69z"/>
											</g>
											<g>
												<path style="fill:#FFFFFF;" d="M178.243,372.69c1.495,2.092,3.141,5.683,6.07,5.536c1.272-0.061,2.26-0.813,2.994-1.842
													c-0.304-0.765-0.561-1.568-0.739-2.373C183.848,375.233,180.35,374.768,178.243,372.69z"/>
											</g>
										</g>
									</g>
								</g>
								<path style="fill:#E2CFD5;" d="M133.399,405.333c3.959,5.045,26.203,20.255,31.189,24.992
									c1.307-1.929,3.538-4.663,5.957-6.72c1.877-1.602,3.872-2.787,5.622-2.854c0.046-0.007,0.1-0.007,0.147-0.007
									c0,0-0.777-0.335-2.111-0.958c-6.264-2.921-24.757-12.094-31.39-21.487c-0.329,0.302-0.798,0.676-1.361,1.099
									C138.96,401.266,134.719,404.039,133.399,405.333z"/>
								<path style="fill:#E2CFD5;" d="M174.008,420.683c0.711-0.034,1.435-0.007,2.159,0.067c1.287,0.128,2.586,0.409,3.866,0.824
									c3.25,1.038,6.338,2.887,8.69,5.078c-0.268-3.732-9.601-23.122-13.293-22.03c-0.04,0.007-0.081,0.02-0.121,0.04
									c0,0-0.133,9.977-1.106,15.122C174.143,420.107,174.077,420.408,174.008,420.683z"/>
							</g>
							<path style="fill:#FFFFFF;" d="M217.663,457.77c-3.686-16.539-12.863-50.132-33.269-49.965l1.085,50.02
								c0.604,6.177,4.133,15.792,6.29,22.478c3.8,11.787,10.34,55.603,15.7,66.69c5.649,11.683,19.806,10.629,22.637-8.015
								c1.491-9.821-3.942-25.605-5.266-35.532C222.807,488.218,221.02,472.833,217.663,457.77z"/>
							<path style="fill:#E2CFD5;" d="M104.98,575.701c9.788,4.527,20.208,7.24,31.713,9.347
								c21.912,4.01,43.104-2.458,60.591-14.896c-2.157-6.602-3.103-13.638-1.206-21.772c2.962-12.68,14.212-62.595,16.159-66.988
								c-3.518,1.954-1.864,1.686-5.759,2.567c-10.363,2.35-22.672,2.656-33.284,1.807c-10.195-0.817-20.583-1.43-30.103-5.44
								c-2.695-1.137-6.87-2.733-8.856-4.878c-2.401-2.605-2.439-6.429-2.988-10.126c-0.874-5.81-1.903-11.582-3.065-17.328
								c-0.778-3.869-1.021-10.42-3.352-13.261c1.814,5.721,1.066,14.04,1.647,19.939c0.747,7.534,0.3,15.119-0.434,22.589
								c-1.404,14.308-4.284,28.622-8.887,42.669c-0.019,1.137-0.057,2.247-0.102,3.333c-0.542,13.172-3.747,26.413-7.297,39.227
								C108.709,566.278,106.844,570.9,104.98,575.701z"/>
							<path style="fill:#FFB278;" d="M213.312,523.65c1.575-1.135,3.11-1.141,4.649-1.276c1.139-0.1,1.988,0.982,3.013,0.871
								c0.642-0.07,1.294-1.148,1.797-1.202c1.907-0.203,2.887-0.068,4.897-0.002c2.167,0.07,2.914-0.715,4.776-1.061
								c5.617-1.047,4.443,3.166,8.523,5.213l-3.404,8.938c-4.131,8.681-20.478,1.631-26.424-1.906
								C209.932,529.283,210.392,525.753,213.312,523.65z"/>
							<path style="fill:#FFFFFF;" d="M102.633,457.676c0.011-14.846,0.047-44.802,20.004-48.536l9.79,42.99
								c0.749,5.398-0.611,14.293-1.266,20.421c-1.152,10.804,1.965,49.524-0.863,60.026c-2.979,11.067-17.029,12.855-23.835-2.554
								c-3.586-8.117-1.706-22.65-2.565-31.392C102.58,485.219,102.622,471.198,102.633,457.676z"/>
							<g>
								<path style="fill:#E2CFD5;" d="M99.458,501.823l3.404-15.323c9.069,2.153,16.374,13.456,14.449,22.559
									C114.038,524.535,98.324,514.137,99.458,501.823z"/>
								<g>
									<path style="fill:#FFB278;" d="M74.582,516.245c2.222,2.068,10.558-7.208,15.281-10.909
										c0.468-0.378,0.895-0.688,1.281-0.929c-0.313,0.362-0.656,0.761-1.034,1.182c-5.029,5.624-15.104,15.786-13.686,18.195
										c3.173,3.076,13.691-8.558,17.688-13.555c-1.773,6.308-12.466,15.227-9.865,17.35c4.523,1.557,9.656-7.246,13.148-11.601
										c-1.513,4.766-7.27,11.92-4.892,13.254c2.964,1.491,11.257-10.424,13.752-14.634c1.151-1.941,2.879-4.787,3.711-7.295
										c0.268-0.808,0.449-1.581,0.478-2.274c0.069-1.385-3.152-5.868-7.3-10c-0.263-0.261-0.525-0.521-0.787-0.775
										c-3.383-3.232-7.248-6.12-10.421-6.925c-0.301-0.075-0.609-0.159-0.918-0.25c-6.047-1.691-13.4-5.101-10.053,1.346
										c0.131,0.255,0.299,0.497,0.493,0.722c2.079,2.492,7.365,3.364,9.94,4.659c-0.853,1.149-2.893,3.42-5.269,6.105
										C80.711,506.025,73.534,514.273,74.582,516.245z"/>
									<path style="fill:#FFB278;" d="M105.281,491.534c1.243,3.57,2.528,3.013,4.623,5.99c1.538,2.185,2.908,6.554-2.624,14.383
										l-4.417-12.411c-4.785-6.122-5.902-7.932-13.029-11.736C96.38,483.655,103.032,485.085,105.281,491.534z"/>
									<g>
										<path style="fill:#E5804E;" d="M91.396,493.805c-0.853,1.149-2.893,3.42-5.269,6.105c0.006,0.204,0.046,0.416,0.106,0.629
											c0.478,1.595,2.215,3.347,3.629,4.796c0.082,0.081,0.172,0.171,0.247,0.253c0.298,0.309,0.582,0.602,0.82,0.878
											c2.846,3.21,5.921,5.228,9.166,7.269c-1.67-1.49-10.576-10.076-10.354-12.915c0.266-3.344,4.234-3.426,6.709-3.477
											c1.453-0.024,2.792-0.342,4.048-0.866c0.929-0.382,1.801-0.875,2.645-1.449c0.425-0.294,0.844-0.603,1.248-0.93
											l-0.234-0.532c-0.614,0.294-1.217,0.525-1.801,0.688c-1.154,0.342-2.251,0.451-3.333,0.413
											c-2.954-0.109-5.75-1.351-8.864-2.271c-3.321-0.976-6.12-1.742-8.703-3.248C83.535,491.638,88.821,492.51,91.396,493.805z
											"/>
									</g>
								</g>
							</g>
							<path style="fill:#E2CFD5;" d="M122.118,499.046c4.328,3.046,5.774,8.117,6.926,12.96
								c-2.346-7.123-8.326-10.882-15.343-11.354l-3.831-9.364C113.829,494.027,118.276,496.341,122.118,499.046z"/>
							<g>
								<path style="fill:#E2CFD5;" d="M198.828,437.02c1.375,8.882,9.258,23.943,13.408,34.477
									c1.363,3.458,2.642,6.443,2.235,10.215c-0.283,2.618-5.746,14.046-12.45,14.685c5.743-5.768,8.315-17.577,6.066-23.623
									C205.37,465.473,199.961,444.966,198.828,437.02z"/>
								<path style="fill:#E2CFD5;" d="M207.767,488.736c0.001,0,0.003-0.001,0.004-0.001c-0.106,0.107-0.208,0.216-0.323,0.32
									L207.767,488.736z"/>
							</g>
						</g>
						<g>
							<path style="fill:#EDEDED;" d="M153.623,518.798l67.87,9.202c0,0,44.032-6.039,46.677-9.763l-8.896,51.858
								c-7.008,3.363-48.576,13.081-57.229,13.799c-4.056,0.336-47.153-11.072-62.537-13.992
								C143.147,563.448,153.623,518.798,153.623,518.798z"/>
							<path style="fill:#FFFFFF;" d="M158.731,520.075l67.869,9.202c0,0,44.032-6.039,46.677-9.763l-8.896,51.858
								c-7.008,3.363-48.576,13.081-57.229,13.799c-4.057,0.336-47.153-11.072-62.537-13.992
								C148.255,564.725,158.731,520.075,158.731,520.075z"/>
							<path style="fill:#1E141A;" d="M164.649,522.688l67.868,9.201c0,0,44.032-6.038,46.677-9.763l-8.897,51.858
								c-7.007,3.363-48.573,13.081-57.226,13.798c-4.056,0.336-47.154-11.071-62.537-13.992
								C154.173,567.338,164.649,522.688,164.649,522.688z"/>
						</g>
					</g>
					<g>
						<path style="fill:#2D1E26;" d="M324.869,757.776l-6.012,2.243c-0.623,2.214-1.802,1.439-1.245,9.486
							c10.322,1.267,16.913,3.848,25.708,2.849C343.372,768.316,330.222,762.396,324.869,757.776z"/>
						<path style="fill:#FFB278;" d="M228.491,615.543c-33.705-6.056-44.161-45.784-45.008-50.756
							c29.687-12.449,99.648-22.502,114.728-20.937c10.94,1.135,13.966,39.951,16.073,49.997
							c3.909,18.666,11.512,129.363,10.586,163.93c-1.38,1.053-4.261,2.176-6.012,2.243c-8.815-21.363-48.154-147.45-51.858-158.824
							C266.86,600.766,235.934,616.88,228.491,615.543z"/>
					</g>
					<g>
						<path style="fill:#2D1E26;" d="M250.518,548.506l-2.271,0.514C248.999,548.354,249.76,548.138,250.518,548.506z"/>
						<path style="fill:#5E2F4B;" d="M249.48,547.049c-5.175,4.582-11.167,32.548-11.625,37.848
							c-1.132,13.095,1.645,26.155,4.856,38.161c-23.452,21.463-96.852,34.972-111.561,22.74
							c-13.01-10.82-22.084-56.23-7.661-63.208C182.864,553.861,249.48,547.049,249.48,547.049z"/>
					</g>
				</g>
				<path style="fill:#E54A6E;" d="M55.001,614.118c0.115,8.077,1.289,15.911,4.054,23.1c6.749,17.519,20.175,28.693,36.393,35.907
					h71.406c-0.082-0.274-0.184-0.53-0.268-0.811c-2.075-7.304-1.979-16.868-1.692-26.005c0.153-4.846,0.358-9.577,0.313-13.778
					c-0.248-25.417,14.181-59.856-12.066-71.655c-14.398-6.474-62.373,11.307-78.322-33.781
					c-3.53,11.141-7.036,23.055-10.496,35.754C60.148,578.159,55.251,596.592,55.001,614.118z"/>
			</g>
		</g>
		<g>
			<g>
				<path style="fill:#626B72;" d="M832.585,513.055c0,2.439,2.324,4.416,5.191,4.416h159.627c2.867,0,5.191-1.977,5.191-4.416l0,0
					c0-2.439-2.324-4.416-5.191-4.416H837.776C834.909,508.64,832.585,510.617,832.585,513.055L832.585,513.055z"/>
				<g>
					<g>
						<path style="fill:#C1C1C1;" d="M799.648,513.426c0.51,2.284,2.775,4.136,5.058,4.136h128.619c2.284,0,3.646-1.852,3.042-4.136
							l-22.75-86.022c-0.604-2.284-2.893-4.136-5.111-4.136H783.561c-2.218,0-3.604,1.852-3.095,4.136L799.648,513.426z"/>
					</g>
					<g>
						<path style="fill:#626B72;" d="M796.892,513.426c0.507,2.284,2.77,4.136,5.054,4.136h128.619c2.284,0,3.648-1.852,3.045-4.136
							l-22.678-86.022c-0.602-2.284-2.889-4.136-5.108-4.136H780.88c-2.219,0-3.606,1.852-3.099,4.136L796.892,513.426z"/>
					</g>
					<g>
						<path style="fill:#FFFFFF;" d="M850.723,470.415c0.552,2.286,2.83,4.14,5.086,4.14c2.257,0,3.633-1.854,3.075-4.14
							c-0.558-2.286-2.836-4.139-5.087-4.139C851.548,466.276,850.171,468.129,850.723,470.415z"/>
					</g>
				</g>
			</g>
			<g>
				<polygon style="fill:#FFFDEE;" points="866.931,473.21 867.558,477.522 869.029,487.631 871.788,506.576 873.434,517.887 
					893.228,517.887 894.721,507.634 894.874,506.576 897.634,487.631 899.104,477.522 899.732,473.21 				"/>
				<polygon style="fill:#844512;" points="869.029,487.631 871.788,506.576 894.874,506.576 897.634,487.631 				"/>
				<path style="opacity:0.5;fill:#844512;" d="M866.931,473.21l0.628,4.313l1.47,10.109l2.76,18.945l1.646,11.311h19.794
					l2.074-14.892c-1.677,0.051-11.122,2.639-15.081-6.521c-1.2-2.778-2.093-5.763-2.771-8.842
					c-1.041-4.702-1.575-9.631-1.92-14.421H866.931z"/>
				<g>
					<path style="fill:#91918D;" d="M866.648,470.665c0,1.25,1.013,2.262,2.262,2.262h28.842c1.25,0,2.262-1.013,2.262-2.262l0,0
						c0-1.249-1.013-2.262-2.262-2.262H868.91C867.661,468.403,866.648,469.415,866.648,470.665L866.648,470.665z"/>
					<path style="fill:#91918D;" d="M862.689,474.058c0,1.913,0.887,3.464,1.98,3.464h37.325c1.093,0,1.98-1.551,1.98-3.464l0,0
						c0-1.913-0.887-3.464-1.98-3.464h-37.325C863.576,470.594,862.689,472.145,862.689,474.058L862.689,474.058z"/>
				</g>
			</g>
		</g>
		<g>
			<polygon style="fill:#FFFDEE;" points="285.738,472.987 286.367,477.299 287.837,487.408 290.597,506.353 292.243,517.664 
				312.036,517.664 313.529,507.411 313.683,506.353 316.442,487.408 317.912,477.299 318.54,472.987 			"/>
			<polygon style="fill:#844512;" points="287.837,487.408 290.597,506.353 313.683,506.353 316.442,487.408 			"/>
			<path style="opacity:0.5;fill:#844512;" d="M285.738,472.987l0.628,4.313l1.47,10.109l2.759,18.945l1.646,11.311h19.794
				l2.074-14.892c-1.677,0.051-11.122,2.639-15.081-6.522c-1.201-2.778-2.092-5.763-2.771-8.842
				c-1.041-4.702-1.575-9.631-1.92-14.421H285.738z"/>
			<g>
				<path style="fill:#91918D;" d="M285.457,470.442c0,1.25,1.013,2.262,2.262,2.262h28.842c1.249,0,2.262-1.013,2.262-2.262l0,0
					c0-1.249-1.013-2.262-2.262-2.262h-28.842C286.469,468.18,285.457,469.193,285.457,470.442L285.457,470.442z"/>
				<path style="fill:#91918D;" d="M281.497,473.835c0,1.913,0.887,3.464,1.979,3.464h37.325c1.094,0,1.98-1.551,1.98-3.464l0,0
					c0-1.913-0.887-3.464-1.98-3.464h-37.325C282.384,470.371,281.497,471.922,281.497,473.835L281.497,473.835z"/>
			</g>
		</g>
	</g>
</g>
</svg>
